<?xml version="1.0" encoding="UTF-8" standalone="no"?>
<svg
   xmlns:dc="http://purl.org/dc/elements/1.1/"
   xmlns:cc="http://creativecommons.org/ns#"
   xmlns:rdf="http://www.w3.org/1999/02/22-rdf-syntax-ns#"
   xmlns:svg="http://www.w3.org/2000/svg"
   xmlns="http://www.w3.org/2000/svg"
   xmlns:sodipodi="http://sodipodi.sourceforge.net/DTD/sodipodi-0.dtd"
   xmlns:inkscape="http://www.inkscape.org/namespaces/inkscape"
   width="46.109146"
   height="46.203144"
   viewBox="0 0 12.199712 12.224582"
   version="1.1"
   id="svg8"
   inkscape:version="1.0.2 (e86c870879, 2021-01-15)"
   sodipodi:docname="clubhouse.svg">
  <defs
     id="defs2" />
  <sodipodi:namedview
     id="base"
     pagecolor="#ffffff"
     bordercolor="#666666"
     borderopacity="1.0"
     inkscape:pageopacity="0.0"
     inkscape:pageshadow="2"
     inkscape:zoom="0.35"
     inkscape:cx="-56.945427"
     inkscape:cy="288.81588"
     inkscape:document-units="mm"
     inkscape:current-layer="layer1"
     inkscape:document-rotation="0"
     showgrid="false"
     units="px"
     inkscape:window-width="1366"
     inkscape:window-height="728"
     inkscape:window-x="0"
     inkscape:window-y="0"
     inkscape:window-maximized="1" />
  <metadata
     id="metadata5">
    <rdf:RDF>
      <cc:Work
         rdf:about="">
        <dc:format>image/svg+xml</dc:format>
        <dc:type
           rdf:resource="http://purl.org/dc/dcmitype/StillImage" />
        <dc:title></dc:title>
      </cc:Work>
    </rdf:RDF>
  </metadata>
  <g
     inkscape:label="Capa 1"
     inkscape:groupmode="layer"
     id="layer1"
     transform="translate(-120.90014,-71.7508)">
    <g
       id="g31757"
       transform="matrix(0.35277777,0,0,0.35277777,-36.112122,-161.75777)">
      <path
         style="fill:#f06121;fill-opacity:1;fill-rule:nonzero;stroke:none"
         d="m 452.48437,678.57422 c 0,0.0117 0,0.0234 0,0.0352 0.46094,0 0.92188,0 1.38282,0 0.44922,0 0.60547,-0.11718 0.66015,-0.5 0.0547,-0.39062 -0.0547,-0.55078 -0.51172,-0.63671 -0.97265,-0.17579 -1.94531,-0.33594 -2.92187,-0.48438 -0.50391,-0.0781 -0.67578,0.0859 -0.73438,0.625 -0.0664,0.58203 0.10547,0.83594 0.60938,0.875 0.50391,0.0352 1.01172,0.0586 1.51562,0.0859 m -0.55468,4.52344 c 0.0703,0.85546 0.54687,1.17187 1.2539,0.83203 0.58985,-0.28125 1.16797,-0.58594 1.74219,-0.88672 0.28906,-0.15235 0.57813,-0.3125 0.84375,-0.49219 0.25781,-0.17578 0.21094,-0.42578 0.10156,-0.66797 -0.10547,-0.23437 -0.28125,-0.42187 -0.55078,-0.32812 -1,0.34375 -1.99219,0.69531 -2.97656,1.07812 -0.17188,0.0703 -0.27734,0.3086 -0.41406,0.46485 m 0.0195,-11.81641 c -0.48438,0.0859 -0.60547,0.44922 -0.74219,0.79297 -0.10156,0.24219 -0.0391,0.46484 0.17578,0.58984 0.95313,0.54297 1.91406,1.07813 2.88281,1.59766 0.25782,0.13672 0.47657,0.0273 0.61719,-0.23438 0.13672,-0.25781 0.26953,-0.51172 -0.0391,-0.74218 -0.8125,-0.60547 -1.62109,-1.21094 -2.4375,-1.80469 -0.14063,-0.10547 -0.32031,-0.14453 -0.45703,-0.19922 m 6.42187,3.21484 c -0.10547,0 -0.18359,0 -0.26172,0 -1.21093,0.0352 -2.01171,0.94532 -1.8789,2.14453 0.0273,0.25391 0.0976,0.50782 0.17578,0.75391 0.75781,2.35547 1.73437,4.61328 3.00781,6.73828 0.64844,1.08203 1.3125,2.15625 2.21485,3.05469 3.05468,3.02734 8.11718,2.46484 10.28515,-1.14844 0.79297,-1.32031 1.1211,-2.77344 1.13281,-4.29297 0.008,-1.12109 0.26954,-2.16015 0.76563,-3.15234 0.18359,-0.375 0.35547,-0.75781 0.47656,-1.15234 0.39844,-1.33204 -0.55859,-2.48438 -1.93359,-2.35547 -1.0586,0.0976 -1.77735,0.6875 -2.3086,1.5625 -0.10546,0.17578 -0.20312,0.35937 -0.32031,0.5664 -0.95312,-1.35937 -1.57812,-2.80468 -1.89844,-4.38281 -0.11718,-0.58203 -0.26171,-1.16797 -0.47656,-1.71875 -0.25781,-0.67187 -0.8164,-1.02734 -1.53125,-1.01172 -0.44922,0.0117 -0.89453,0.14063 -1.38672,0.22656 -0.39062,-0.85156 -1.16797,-1.14453 -2.10937,-0.94531 -1.24219,0.25781 -1.71485,1.11719 -1.58594,2.33594 -1.90625,-0.0586 -2.69922,0.875 -2.36719,2.77734 m 2.91407,-12.58203 h 2.16015 c 0.0899,0.0195 0.17578,0.0469 0.26172,0.0547 2.59766,0.19531 5.05078,0.91016 7.27734,2.26172 5.41797,3.28125 8.35547,8.10937 8.65235,14.45312 0.18359,3.92188 -0.94141,7.51563 -3.25391,10.6875 -2.7539,3.77344 -6.4414,6.09375 -11.03515,6.9336 -0.62891,0.11328 -1.26563,0.17578 -1.90235,0.26172 h -2.16015 c -0.0859,-0.0195 -0.17188,-0.0469 -0.25782,-0.0547 -3.44531,-0.27344 -6.54687,-1.46094 -9.26172,-3.59766 -3.49609,-2.7539 -5.65234,-6.32812 -6.43359,-10.72265 -0.10937,-0.61719 -0.17187,-1.2461 -0.25781,-1.86719 v -2.16797 c 0.0508,-0.41016 0.0937,-0.82422 0.14844,-1.23438 0.49609,-3.52343 1.91015,-6.6289 4.29296,-9.26562 2.67188,-2.95313 5.97266,-4.79688 9.90625,-5.48047 0.61719,-0.10937 1.24219,-0.17578 1.86329,-0.26172"
         id="path27555" />
      <path
         style="fill:#f06121;fill-opacity:1;fill-rule:nonzero;stroke:none"
         d="m 466.67187,688.13672 c -2.35156,-0.0391 -3.94531,-0.96094 -5.14453,-2.61719 -1.89843,-2.625 -3.22265,-5.53906 -4.20703,-8.61328 -0.0664,-0.19922 -0.0859,-0.42188 -0.082,-0.63281 0.0117,-0.36719 0.25391,-0.61719 0.64844,-0.71875 0.39844,-0.10157 0.68359,-0.0156 0.875,0.32031 0.14844,0.26172 0.23828,0.55469 0.35937,0.83203 0.49219,1.13672 0.98438,2.26953 1.48047,3.40234 0.0547,0.1211 0.12891,0.23438 0.20313,0.35157 0.22656,0.34765 0.49218,0.44531 0.7539,0.28125 0.23438,-0.14453 0.25782,-0.36328 0.043,-0.7461 -1.01562,-1.80859 -1.71875,-3.73437 -2.22265,-5.74218 -0.0352,-0.13282 -0.0547,-0.26563 -0.0664,-0.40235 -0.0742,-0.72265 0.30859,-1.13672 1.03125,-1.12109 0.40234,0.008 0.63281,0.23828 0.73828,0.58203 0.15234,0.49609 0.27344,1 0.39453,1.50391 0.32813,1.38281 0.88672,2.66796 1.58203,3.89843 0.1211,0.21094 0.12891,0.36328 -0.043,0.53516 -0.082,0.0781 -0.14843,0.17187 -0.21484,0.26172 -0.26953,0.34765 -0.21875,0.70703 0.16406,0.9414 0.0742,0.0469 0.27344,0.0117 0.33203,-0.0586 1.02735,-1.25 2.37891,-1.92969 3.92969,-2.25781 0.0899,-0.0195 0.17578,-0.043 0.25781,-0.082 0.20704,-0.10157 0.23047,-0.36328 0.0352,-0.48828 -0.0859,-0.0586 -0.21875,-0.10547 -0.31641,-0.082 -0.55078,0.125 -0.75781,-0.1914 -0.96875,-0.6289 -0.75,-1.53516 -1.27734,-3.125 -1.44921,-4.82813 -0.0586,-0.5625 0.21093,-0.77343 0.62109,-0.88672 0.50391,-0.13671 0.92187,0.0312 1.07422,0.4961 0.17969,0.57812 0.29687,1.17578 0.42578,1.76953 0.38672,1.73437 1.15234,3.28906 2.19922,4.70703 0.19922,0.26953 0.15625,0.4375 -0.0547,0.63281 -0.30078,0.26953 -0.61328,0.53125 -0.89844,0.82032 -0.53906,0.55859 -0.89453,1.21484 -0.9414,2.0039 -0.008,0.1875 -0.0742,0.42969 0.23828,0.46875 0.42969,0.0547 0.67578,-0.0703 0.71484,-0.40234 0.0859,-0.69531 0.39844,-1.26172 0.91797,-1.71875 0.17578,-0.15625 0.34375,-0.32422 0.52734,-0.47266 0.39844,-0.32422 0.63282,-0.73437 0.82032,-1.21484 0.19531,-0.50391 0.44531,-1.00781 0.75781,-1.44922 0.33203,-0.46875 0.83984,-0.70313 1.44141,-0.66797 0.5039,0.0273 0.8125,0.39844 0.70703,0.89063 -0.0508,0.25 -0.14844,0.5 -0.26172,0.72656 -0.67969,1.33594 -1.07813,2.72656 -1.0625,4.25 0.008,1.07422 -0.23828,2.1289 -0.73828,3.09765 -1.01563,1.98438 -2.67969,2.96094 -4.60157,3.0586"
         id="path27557" />
      <path
         style="fill:#f06121;fill-opacity:1;fill-rule:nonzero;stroke:none"
         d="m 465.60156,677.67578 c -0.44922,0.20313 -0.86719,0.375 -1.26172,0.58203 -0.28125,0.14453 -0.42187,0.0547 -0.5625,-0.19922 -0.75,-1.32422 -1.23437,-2.74218 -1.54297,-4.23047 -0.16015,-0.76953 -0.375,-1.52734 -0.50781,-2.30078 -0.12109,-0.71875 0.27735,-1.14062 1,-1.16797 0.4961,-0.0156 0.74219,0.13282 0.85938,0.62891 0.15234,0.65234 0.26172,1.32031 0.36328,1.98828 0.23047,1.52344 0.82422,2.91406 1.46875,4.29297 0.0625,0.13281 0.11719,0.26563 0.18359,0.40625"
         id="path27559" />
    </g>
  </g>
</svg>
