<?xml version="1.0" encoding="UTF-8" standalone="no"?>
<svg
   xmlns:dc="http://purl.org/dc/elements/1.1/"
   xmlns:cc="http://creativecommons.org/ns#"
   xmlns:rdf="http://www.w3.org/1999/02/22-rdf-syntax-ns#"
   xmlns:svg="http://www.w3.org/2000/svg"
   xmlns="http://www.w3.org/2000/svg"
   xmlns:sodipodi="http://sodipodi.sourceforge.net/DTD/sodipodi-0.dtd"
   xmlns:inkscape="http://www.inkscape.org/namespaces/inkscape"
   width="45.926865"
   height="46.001774"
   viewBox="0 0 12.151483 12.171303"
   version="1.1"
   id="svg8"
   inkscape:version="1.0.2 (e86c870879, 2021-01-15)"
   sodipodi:docname="discord.svg">
  <defs
     id="defs2" />
  <sodipodi:namedview
     id="base"
     pagecolor="#ffffff"
     bordercolor="#666666"
     borderopacity="1.0"
     inkscape:pageopacity="0.0"
     inkscape:pageshadow="2"
     inkscape:zoom="0.35"
     inkscape:cx="60.10629"
     inkscape:cy="357.28659"
     inkscape:document-units="mm"
     inkscape:current-layer="layer1"
     inkscape:document-rotation="0"
     showgrid="false"
     units="px"
     inkscape:window-width="1366"
     inkscape:window-height="728"
     inkscape:window-x="0"
     inkscape:window-y="0"
     inkscape:window-maximized="1" />
  <metadata
     id="metadata5">
    <rdf:RDF>
      <cc:Work
         rdf:about="">
        <dc:format>image/svg+xml</dc:format>
        <dc:type
           rdf:resource="http://purl.org/dc/dcmitype/StillImage" />
        <dc:title></dc:title>
      </cc:Work>
    </rdf:RDF>
  </metadata>
  <g
     inkscape:label="Capa 1"
     inkscape:groupmode="layer"
     id="layer1"
     transform="translate(-89.930211,-53.63459)">
    <g
       id="g54146"
       transform="matrix(0.35277777,0,0,0.35277777,4.6488873,-179.8735)">
      <path
         style="fill:#f06121;fill-opacity:1;fill-rule:nonzero;stroke:none"
         d="m 263.63281,686.55078 c 0.40235,0.64063 0.8086,1.26953 1.19141,1.91016 0.12109,0.19531 0.24219,0.20312 0.4414,0.14062 2.09375,-0.68359 4.03907,-1.65625 5.82032,-2.95703 0.11328,-0.0859 0.21875,-0.26172 0.23047,-0.40234 0.14453,-1.51563 0.125,-3.02735 -0.0625,-4.53516 -0.41797,-3.36719 -1.64063,-6.42969 -3.52344,-9.23828 -0.082,-0.12109 -0.21485,-0.23438 -0.34766,-0.29297 -1.50781,-0.67969 -3.07812,-1.16797 -4.70703,-1.44922 -0.0937,-0.0156 -0.25781,0.0625 -0.30469,0.14453 -0.17187,0.28907 -0.3125,0.59766 -0.44922,0.90235 -0.0742,0.17578 -0.14843,0.25 -0.37109,0.22265 -1.73047,-0.24218 -3.46484,-0.24609 -5.19531,0 -0.20313,0.0274 -0.27735,-0.0351 -0.35156,-0.20312 -0.13672,-0.30469 -0.30079,-0.59766 -0.44141,-0.90235 -0.0742,-0.15234 -0.15625,-0.21093 -0.33984,-0.17578 -1.63672,0.3086 -3.21875,0.78907 -4.73438,1.47657 -0.11328,0.0547 -0.22656,0.14843 -0.29687,0.2539 -2.78907,4.1875 -4.03516,8.78125 -3.59766,13.8086 0.0117,0.1289 0.0898,0.28906 0.1875,0.35937 1.81641,1.32813 3.79687,2.32813 5.94531,3 0.0742,0.0234 0.22266,0.0117 0.25391,-0.0391 0.4414,-0.66797 0.86719,-1.34766 1.3125,-2.05078 -0.41797,-0.1836 -0.76172,-0.32422 -1.08985,-0.48438 -0.33984,-0.16406 -0.67187,-0.34765 -1.00781,-0.52734 0.30469,-0.42578 0.41016,-0.46094 0.75,-0.31641 3.98047,1.70703 7.96094,1.72266 11.94922,0.0352 0.41797,-0.17969 0.48438,-0.16016 0.79297,0.24609 -0.0156,0.0234 -0.0312,0.0625 -0.0586,0.0742 -0.64063,0.32422 -1.28125,0.64063 -1.9961,1 m 12.55469,-8.44922 v 2.15625 c -0.0195,0.0859 -0.0469,0.17188 -0.0547,0.25781 -0.22656,2.96875 -1.14844,5.70313 -2.8125,8.16797 -2.74609,4.0586 -6.53515,6.5625 -11.35937,7.46094 -0.63672,0.11719 -1.28516,0.17969 -1.92578,0.26953 h -2.15235 c -0.0976,-0.0234 -0.19531,-0.0508 -0.29297,-0.0586 -2.19531,-0.16797 -4.28125,-0.73828 -6.24609,-1.71875 -6.59766,-3.28906 -10.33594,-10.14063 -9.48047,-17.48828 0.57031,-4.91016 2.89844,-8.875 6.85547,-11.8125 5.58203,-4.14063 12.86328,-4.5586 18.84375,-1.07032 4.60547,2.6875 7.39062,6.71875 8.36719,11.97657 0.11328,0.61328 0.17187,1.23828 0.25781,1.85937"
         id="path27533" />
      <path
         style="fill:#f06121;fill-opacity:1;fill-rule:nonzero;stroke:none"
         d="m 263.07422,677.5625 c 1.36719,0.0586 2.45312,1.36328 2.24219,2.8125 -0.0703,0.47266 -0.2461,0.97266 -0.51563,1.35937 -0.82812,1.19141 -2.46484,1.19532 -3.36719,0.0547 -0.98828,-1.25 -0.64843,-3.20703 0.69922,-3.91406 0.28906,-0.14844 0.625,-0.21094 0.94141,-0.3125"
         id="path27535" />
      <path
         style="fill:#f06121;fill-opacity:1;fill-rule:nonzero;stroke:none"
         d="m 254.80469,682.62891 c -0.76953,-0.0234 -1.35938,-0.37891 -1.76172,-1.01172 -0.61328,-0.96875 -0.62891,-1.97657 -0.0273,-2.94922 0.875,-1.41406 2.76563,-1.39453 3.64844,0.0117 0.67188,1.0625 0.48828,2.55078 -0.42187,3.39062 -0.40625,0.3711 -0.88282,0.56641 -1.4375,0.5586"
         id="path27537" />
    </g>
  </g>
</svg>
