<?xml version="1.0" encoding="UTF-8" standalone="no"?>
<svg
   xmlns:dc="http://purl.org/dc/elements/1.1/"
   xmlns:cc="http://creativecommons.org/ns#"
   xmlns:rdf="http://www.w3.org/1999/02/22-rdf-syntax-ns#"
   xmlns:svg="http://www.w3.org/2000/svg"
   xmlns="http://www.w3.org/2000/svg"
   xmlns:sodipodi="http://sodipodi.sourceforge.net/DTD/sodipodi-0.dtd"
   xmlns:inkscape="http://www.inkscape.org/namespaces/inkscape"
   width="46.209179"
   height="46.203323"
   viewBox="0 0 12.226179 12.224629"
   version="1.1"
   id="svg8"
   inkscape:version="1.0.2 (e86c870879, 2021-01-15)"
   sodipodi:docname="github.svg">
  <defs
     id="defs2" />
  <sodipodi:namedview
     id="base"
     pagecolor="#ffffff"
     bordercolor="#666666"
     borderopacity="1.0"
     inkscape:pageopacity="0.0"
     inkscape:pageshadow="2"
     inkscape:zoom="0.35"
     inkscape:cx="57.390321"
     inkscape:cy="334.53022"
     inkscape:document-units="mm"
     inkscape:current-layer="layer1"
     inkscape:document-rotation="0"
     showgrid="false"
     units="px"
     inkscape:window-width="1366"
     inkscape:window-height="728"
     inkscape:window-x="0"
     inkscape:window-y="0"
     inkscape:window-maximized="1" />
  <metadata
     id="metadata5">
    <rdf:RDF>
      <cc:Work
         rdf:about="">
        <dc:format>image/svg+xml</dc:format>
        <dc:type
           rdf:resource="http://purl.org/dc/dcmitype/StillImage" />
        <dc:title></dc:title>
      </cc:Work>
    </rdf:RDF>
  </metadata>
  <g
     inkscape:label="Capa 1"
     inkscape:groupmode="layer"
     id="layer1"
     transform="translate(-90.648811,-59.655547)">
    <path
       style="fill:#f06121;fill-opacity:1;fill-rule:nonzero;stroke:none;stroke-width:0.352778"
       d="m 95.330001,71.880174 h -0.04823 c -0.04272,-0.01517 -0.08682,-0.03171 -0.130916,-0.04823 -0.289387,-0.107488 -0.588419,-0.198438 -0.868162,-0.326595 -0.872299,-0.398254 -1.598524,-0.988056 -2.19935,-1.733574 -0.698666,-0.869541 -1.146528,-1.85346 -1.339452,-2.95038 -0.04548,-0.253559 -0.06477,-0.511252 -0.09508,-0.767566 v -0.644921 c 0.0069,-0.03859 0.0193,-0.07717 0.02067,-0.115757 0.03168,-0.457506 0.119888,-0.905372 0.259069,-1.34221 0.873679,-2.765721 3.607707,-4.608159 6.549817,-4.251247 1.317406,0.158475 2.466689,0.691776 3.432693,1.595769 1.16995,1.094162 1.8259,2.446017 1.94717,4.048675 0.0661,0.881945 -0.0648,1.737706 -0.36656,2.565908 -0.34175,0.941201 -0.87368,1.76251 -1.59577,2.45842 -0.54295,0.525033 -1.15755,0.943956 -1.858971,1.229209 -0.260449,0.104732 -0.529167,0.188792 -0.79375,0.282501 h -0.04685 c 0,-0.832337 -0.0028,-1.663295 0,-2.495628 0.0028,-0.354157 -0.07993,-0.676617 -0.30868,-0.95498 -0.04548,-0.0565 -0.08544,-0.119891 -0.119892,-0.168123 0.31695,-0.0937 0.631144,-0.165365 0.930176,-0.278363 1.066603,-0.405144 1.722547,-1.372524 1.712897,-2.513542 -0.004,-0.537435 -0.18466,-1.023881 -0.483685,-1.460718 -0.125402,-0.181903 -0.187413,-0.348647 -0.09233,-0.559485 0.02343,-0.05099 0.01792,-0.117133 0.02343,-0.176389 0.03859,-0.383095 -0.0248,-0.749652 -0.155716,-1.091406 -0.392741,-0.01517 -0.724849,0.133668 -1.047309,0.312815 -0.139182,0.07717 -0.279743,0.151582 -0.413414,0.237021 -0.08819,0.0565 -0.170875,0.06339 -0.270093,0.03721 -0.773081,-0.201193 -1.550293,-0.217731 -2.324753,-0.0193 -0.16812,0.04272 -0.299032,0.0248 -0.447862,-0.06752 -0.417544,-0.260449 -0.843358,-0.515387 -1.365634,-0.505742 -0.187414,0.38723 -0.228756,0.938445 -0.09784,1.449698 0.02205,0.08957 0.01101,0.155716 -0.0441,0.230131 -0.54846,0.748277 -0.698666,1.581989 -0.440972,2.46531 0.263204,0.905372 0.908124,1.451073 1.785937,1.737705 0.235642,0.07717 0.479556,0.128161 0.720711,0.190172 -0.0041,0.01238 -0.0069,0.02343 -0.01379,0.03306 -0.170875,0.234266 -0.343129,0.468532 -0.381716,0.770322 -0.0014,0.02205 -0.02755,0.04961 -0.04823,0.05788 -0.281118,0.09784 -0.559485,0.113002 -0.797885,-0.09508 -0.106109,-0.09233 -0.17501,-0.224621 -0.270094,-0.330729 -0.155719,-0.173634 -0.304546,-0.358288 -0.483693,-0.505739 -0.219107,-0.180523 -0.486446,-0.259073 -0.786857,-0.23289 0.02205,0.241159 0.04272,0.47267 0.06339,0.705556 0.180524,0.0083 0.319705,0.08268 0.425813,0.206706 0.09784,0.115754 0.188793,0.235645 0.274232,0.359668 0.325215,0.469911 0.766188,0.704176 1.339452,0.676617 0.0813,-0.0041 0.162609,-0.0193 0.252183,-0.0303 z m 0,0"
       id="path27549" />
  </g>
</svg>
