<?xml version="1.0" encoding="UTF-8" standalone="no"?>
<svg
   xmlns:dc="http://purl.org/dc/elements/1.1/"
   xmlns:cc="http://creativecommons.org/ns#"
   xmlns:rdf="http://www.w3.org/1999/02/22-rdf-syntax-ns#"
   xmlns:svg="http://www.w3.org/2000/svg"
   xmlns="http://www.w3.org/2000/svg"
   xmlns:sodipodi="http://sodipodi.sourceforge.net/DTD/sodipodi-0.dtd"
   xmlns:inkscape="http://www.inkscape.org/namespaces/inkscape"
   width="46.141319"
   height="46.191765"
   viewBox="0 0 12.208225 12.221571"
   version="1.1"
   id="svg8"
   inkscape:version="1.0.2 (e86c870879, 2021-01-15)"
   sodipodi:docname="instagram.svg">
  <defs
     id="defs2" />
  <sodipodi:namedview
     id="base"
     pagecolor="#ffffff"
     bordercolor="#666666"
     borderopacity="1.0"
     inkscape:pageopacity="0.0"
     inkscape:pageshadow="2"
     inkscape:zoom="0.35"
     inkscape:cx="-99.786484"
     inkscape:cy="223.09588"
     inkscape:document-units="mm"
     inkscape:current-layer="layer1"
     inkscape:document-rotation="0"
     showgrid="false"
     units="px"
     inkscape:window-width="1366"
     inkscape:window-height="728"
     inkscape:window-x="0"
     inkscape:window-y="0"
     inkscape:window-maximized="1" />
  <metadata
     id="metadata5">
    <rdf:RDF>
      <cc:Work
         rdf:about="">
        <dc:format>image/svg+xml</dc:format>
        <dc:type
           rdf:resource="http://purl.org/dc/dcmitype/StillImage" />
        <dc:title></dc:title>
      </cc:Work>
    </rdf:RDF>
  </metadata>
  <g
     inkscape:label="Capa 1"
     inkscape:groupmode="layer"
     id="layer1"
     transform="translate(-132.23517,-89.139215)">
    <g
       id="g32026"
       transform="matrix(0.35277777,0,0,0.35277777,-86.730961,-144.3696)">
      <path
         style="fill:#f06121;fill-opacity:1;fill-rule:nonzero;stroke:none"
         d="m 628.01172,679.24609 c 0.0625,1.64844 0.0664,3.3086 0.20312,4.95703 0.21094,2.51954 1.96875,4.41016 4.46485,4.76172 1.2539,0.17969 2.53906,0.20313 3.80859,0.20313 2.15234,0 4.30859,0.008 6.45313,-0.14063 1.98828,-0.14062 3.5039,-1.16015 4.3789,-3.00781 0.38281,-0.80469 0.55469,-1.66797 0.56641,-2.55469 0.0352,-2.33203 0.0547,-4.66797 0.0547,-7 0.004,-0.73047 -0.0469,-1.46484 -0.125,-2.19531 -0.25782,-2.52344 -1.96485,-4.39844 -4.47266,-4.76172 -1.24219,-0.17578 -2.51563,-0.19922 -3.77344,-0.19922 -2.16406,0 -4.33203,-0.008 -6.48828,0.13672 -2.69141,0.1875 -4.64453,2.17188 -4.87109,4.85938 -0.13282,1.63672 -0.13672,3.28515 -0.19922,4.9414 m 11.08203,17.3125 h -2.16406 c -0.42188,-0.0547 -0.84766,-0.0976 -1.26953,-0.16015 -3.19532,-0.45313 -6.06641,-1.67188 -8.5586,-3.72266 -3.3125,-2.71875 -5.375,-6.19531 -6.14062,-10.41797 -0.11719,-0.64062 -0.1836,-1.29297 -0.26953,-1.9375 v -2.16406 c 0.10937,-0.75781 0.1875,-1.51953 0.33203,-2.26953 1.42187,-7.4375 7.75781,-13.19531 15.28515,-13.88672 3.69922,-0.33984 7.21875,0.32031 10.38672,2.27344 6.19922,3.82422 9.07422,9.43359 8.53906,16.69922 -0.2539,3.4375 -1.58984,6.5039 -3.77734,9.17187 -2.71875,3.31641 -6.19922,5.375 -10.42578,6.14453 -0.64063,0.11719 -1.29297,0.17969 -1.9375,0.26953"
         id="path27567" />
      <path
         style="fill:#f06121;fill-opacity:1;fill-rule:nonzero;stroke:none"
         d="m 643.30859,675.11719 c 0.66797,0.004 1.20313,-0.52344 1.20313,-1.19141 0,-0.65234 -0.52344,-1.17969 -1.17578,-1.18359 -0.67188,-0.008 -1.20313,0.51953 -1.20313,1.1875 0.004,0.65625 0.51953,1.17968 1.17578,1.1875 m -5.29297,9.22265 c 2.82032,-0.004 5.08985,-2.26953 5.10157,-5.08984 0.0117,-2.82813 -2.27735,-5.11719 -5.10938,-5.11328 -2.82031,0 -5.08984,2.26562 -5.09765,5.08984 -0.0117,2.82422 2.27734,5.11719 5.10546,5.11328 m -8.1875,-5.12109 c 0.043,-1.50781 0.0469,-3.00781 0.13672,-4.50391 0.125,-2.08203 1.44532,-3.45703 3.52344,-3.51172 3.00781,-0.0781 6.01563,-0.082 9.02344,0 2.125,0.0547 3.48047,1.41797 3.53906,3.55079 0.082,3.00781 0.0742,6.01562 -0.004,9.02343 -0.0547,2.05469 -1.4375,3.38672 -3.49218,3.50391 -3.03125,0.17578 -6.0625,0.17578 -9.09375,0 -2.05078,-0.11719 -3.3711,-1.44922 -3.4961,-3.51172 -0.0898,-1.51562 -0.0937,-3.03906 -0.13672,-4.55078"
         id="path27569" />
      <path
         style="fill:#f06121;fill-opacity:1;fill-rule:nonzero;stroke:none"
         d="m 641.32812,679.24609 c -0.004,1.82032 -1.49218,3.30469 -3.3164,3.30469 -1.83203,0 -3.32422,-1.5 -3.3125,-3.33594 0.008,-1.82031 1.50781,-3.29687 3.32812,-3.29297 1.82422,0.008 3.30469,1.5 3.30078,3.32422"
         id="path27571" />
    </g>
  </g>
</svg>
