<?xml version="1.0" encoding="UTF-8" standalone="no"?>
<svg
   xmlns:dc="http://purl.org/dc/elements/1.1/"
   xmlns:cc="http://creativecommons.org/ns#"
   xmlns:rdf="http://www.w3.org/1999/02/22-rdf-syntax-ns#"
   xmlns:svg="http://www.w3.org/2000/svg"
   xmlns="http://www.w3.org/2000/svg"
   xmlns:sodipodi="http://sodipodi.sourceforge.net/DTD/sodipodi-0.dtd"
   xmlns:inkscape="http://www.inkscape.org/namespaces/inkscape"
   width="46.182892"
   height="46.191383"
   viewBox="0 0 12.219224 12.22147"
   version="1.1"
   id="svg8"
   inkscape:version="1.0.2 (e86c870879, 2021-01-15)"
   sodipodi:docname="instagram.svg">
  <defs
     id="defs2" />
  <sodipodi:namedview
     id="base"
     pagecolor="#ffffff"
     bordercolor="#666666"
     borderopacity="1.0"
     inkscape:pageopacity="0.0"
     inkscape:pageshadow="2"
     inkscape:zoom="0.35"
     inkscape:cx="97.377151"
     inkscape:cy="314.52428"
     inkscape:document-units="mm"
     inkscape:current-layer="layer1"
     inkscape:document-rotation="0"
     showgrid="false"
     units="px"
     inkscape:window-width="1366"
     inkscape:window-height="728"
     inkscape:window-x="0"
     inkscape:window-y="0"
     inkscape:window-maximized="1" />
  <metadata
     id="metadata5">
    <rdf:RDF>
      <cc:Work
         rdf:about="">
        <dc:format>image/svg+xml</dc:format>
        <dc:type
           rdf:resource="http://purl.org/dc/dcmitype/StillImage" />
        <dc:title></dc:title>
      </cc:Work>
    </rdf:RDF>
  </metadata>
  <g
     inkscape:label="Capa 1"
     inkscape:groupmode="layer"
     id="layer1"
     transform="translate(-80.068962,-64.948785)">
    <g
       id="g31924"
       transform="matrix(0.35277777,0,0,0.35277777,-107.39246,-168.56013)">
      <path
         style="fill:#f06121;fill-opacity:1;fill-rule:nonzero;stroke:none"
         d="m 541.76172,674.51562 c 1.23047,-0.004 2.21484,-0.98828 2.20703,-2.21484 -0.004,-1.19531 -1.01172,-2.19141 -2.20703,-2.18359 -1.20703,0.008 -2.1875,1 -2.1875,2.20703 0,1.21094 0.97656,2.1914 2.1875,2.1914 m 1.88672,1.69141 h -3.73047 v 12.13281 h 3.73047 z m 6.15234,12.13672 v -0.42578 c 0,-1.89453 -0.008,-3.78906 0.004,-5.67969 0.004,-0.69141 0.0586,-1.37891 0.38672,-2.00781 0.40625,-0.78516 1.21093,-1.13281 2.28515,-0.9961 0.7461,0.0977 1.26563,0.59766 1.42969,1.45704 0.0898,0.44921 0.13281,0.91406 0.13672,1.375 0.0156,1.96093 0.008,3.92187 0.008,5.88281 0,0.1289 0,0.26172 0,0.38281 h 3.76563 c 0.004,-0.10547 0.0156,-0.17969 0.0156,-0.25781 0,-2.17578 0.0195,-4.35547 -0.0156,-6.52735 -0.0117,-0.85156 -0.0977,-1.71484 -0.25782,-2.55078 -0.27734,-1.42578 -1.05859,-2.47656 -2.51953,-2.88672 -0.41015,-0.11718 -0.83984,-0.18359 -1.26172,-0.21093 -1.65625,-0.11719 -3.04297,0.38281 -3.99218,1.82422 -0.0156,0.0234 -0.0469,0.0391 -0.11719,0.0976 v -1.60937 h -3.59375 v 12.13281 z m -18.41406,-8.02344 v -2.16406 c 0.0195,-0.0977 0.043,-0.19531 0.0586,-0.29297 0.11719,-0.78125 0.1836,-1.57031 0.35156,-2.33594 2.10547,-9.53125 11.58594,-15.45312 21.08204,-13.09375 9.02343,2.23828 14.58984,11.0586 12.8164,20.17578 -1.35937,6.98047 -6.99219,12.49219 -14.0039,13.6836 -0.62891,0.10547 -1.26563,0.17578 -1.89844,0.26562 H 547.625 c -0.0742,-0.0195 -0.14844,-0.0508 -0.22266,-0.0586 -1.46875,-0.10156 -2.90625,-0.37109 -4.28515,-0.88281 -6.29297,-2.33203 -10.10938,-6.79297 -11.45703,-13.36328 -0.12891,-0.63672 -0.1836,-1.28907 -0.27344,-1.9336"
         id="path27565" />
    </g>
  </g>
</svg>
