<?xml version="1.0" encoding="UTF-8" standalone="no"?>
<svg
   xmlns:dc="http://purl.org/dc/elements/1.1/"
   xmlns:cc="http://creativecommons.org/ns#"
   xmlns:rdf="http://www.w3.org/1999/02/22-rdf-syntax-ns#"
   xmlns:svg="http://www.w3.org/2000/svg"
   xmlns="http://www.w3.org/2000/svg"
   xmlns:sodipodi="http://sodipodi.sourceforge.net/DTD/sodipodi-0.dtd"
   xmlns:inkscape="http://www.inkscape.org/namespaces/inkscape"
   width="45.761742"
   height="45.780033"
   viewBox="0 0 12.107795 12.112634"
   version="1.1"
   id="svg8"
   inkscape:version="1.0.2 (e86c870879, 2021-01-15)"
   sodipodi:docname="redit.svg">
  <defs
     id="defs2" />
  <sodipodi:namedview
     id="base"
     pagecolor="#ffffff"
     bordercolor="#666666"
     borderopacity="1.0"
     inkscape:pageopacity="0.0"
     inkscape:pageshadow="2"
     inkscape:zoom="0.35"
     inkscape:cx="214.30944"
     inkscape:cy="280.03286"
     inkscape:document-units="mm"
     inkscape:current-layer="layer1"
     inkscape:document-rotation="0"
     showgrid="false"
     units="px"
     inkscape:window-width="1366"
     inkscape:window-height="728"
     inkscape:window-x="0"
     inkscape:window-y="0"
     inkscape:window-maximized="1" />
  <metadata
     id="metadata5">
    <rdf:RDF>
      <cc:Work
         rdf:about="">
        <dc:format>image/svg+xml</dc:format>
        <dc:type
           rdf:resource="http://purl.org/dc/dcmitype/StillImage" />
        <dc:title></dc:title>
      </cc:Work>
    </rdf:RDF>
  </metadata>
  <g
     inkscape:label="Capa 1"
     inkscape:groupmode="layer"
     id="layer1"
     transform="translate(-49.130627,-74.074639)">
    <g
       id="g54207"
       transform="matrix(0.35277777,0,0,0.35277777,-49.896222,-159.43425)">
      <path
         style="fill:#f06121;fill-opacity:1;fill-rule:nonzero;stroke:none"
         d="m 299.20703,671.60937 c 1.04297,0.23829 2.03125,0.45704 3.01953,0.69922 0.082,0.0195 0.16797,0.17578 0.1875,0.28516 0.15235,0.77734 0.90235,1.30469 1.65625,1.14844 0.64453,-0.12891 1.11328,-0.63282 1.16797,-1.25782 0.0586,-0.64062 -0.29297,-1.23437 -0.87891,-1.47656 -0.60546,-0.24609 -1.27343,-0.0781 -1.67968,0.45703 -0.125,0.16407 -0.23047,0.1875 -0.42188,0.14453 -0.96484,-0.22656 -1.9375,-0.4375 -2.90234,-0.65625 -0.62891,-0.14062 -0.67969,-0.10546 -0.81641,0.51172 -0.3164,1.47266 -0.63672,2.94532 -0.94922,4.41797 -0.0469,0.21094 -0.12109,0.29688 -0.36328,0.32422 -0.68359,0.082 -1.38672,0.14453 -2.03906,0.35547 -0.90234,0.29687 -1.76172,0.72266 -2.69531,1.11719 0.0664,0.0391 0.043,0.0312 0.0273,0.0156 -0.8125,-0.78515 -2.15625,-0.67969 -2.82031,0.1836 -0.71485,0.9375 -0.50391,2.13281 0.5,2.87109 0.0781,0.0586 0.11719,0.21094 0.12109,0.32422 0.0391,0.5625 -0.0234,1.14844 0.10547,1.6914 0.35156,1.50782 1.36328,2.53125 2.65625,3.29297 2,1.17188 4.17188,1.46485 6.4375,1.11719 1.76953,-0.27344 3.37109,-0.94922 4.63281,-2.27734 1.02344,-1.07422 1.53907,-2.33985 1.28516,-3.84766 -0.0391,-0.22266 0.0703,-0.28906 0.21094,-0.39062 0.76172,-0.55079 1.01172,-1.51172 0.61718,-2.38672 -0.375,-0.84375 -1.24609,-1.28907 -2.15234,-1.05078 -0.34375,0.0898 -0.65625,0.30078 -1.01172,0.47265 -1.44922,-0.95703 -3.09375,-1.45703 -4.89453,-1.51172 0.33594,-1.53125 0.66406,-3.03125 1,-4.57422 M 298.9375,696.25 h -2.14453 c -0.082,-0.0195 -0.16797,-0.0508 -0.25391,-0.0547 -1.53515,-0.10937 -3.02344,-0.43359 -4.46875,-0.95703 -8.48828,-3.05859 -13.15234,-12.11328 -10.72265,-20.80078 3.01171,-10.78125 15.39843,-15.83203 25.12109,-10.1875 4.58203,2.66016 7.33594,6.6875 8.30078,11.91016 0.11719,0.61328 0.17578,1.23437 0.25781,1.85156 v 2.07812 c -0.0156,0.10938 -0.0391,0.21485 -0.0547,0.32422 -0.0937,0.67188 -0.15235,1.35547 -0.28125,2.01953 -1.33594,6.91407 -6.92579,12.3711 -13.8711,13.55469 -0.625,0.10547 -1.2539,0.17578 -1.88281,0.26172"
         id="path27539" />
      <path
         style="fill:#f06121;fill-opacity:1;fill-rule:nonzero;stroke:none"
         d="m 296.13672,681.03516 c 0,0.79687 -0.6211,1.42578 -1.41797,1.43359 -0.81641,0.008 -1.48047,-0.64844 -1.47656,-1.45703 0.008,-0.78906 0.67187,-1.44531 1.46093,-1.44141 0.80079,0.008 1.4336,0.65625 1.4336,1.46485"
         id="path27541" />
      <path
         style="fill:#f06121;fill-opacity:1;fill-rule:nonzero;stroke:none"
         d="m 302.44141,680.99609 c 0,0.79297 -0.63282,1.4336 -1.42188,1.4336 -0.78516,0 -1.42187,-0.64453 -1.41797,-1.4375 0.004,-0.77735 0.625,-1.40625 1.40235,-1.41797 0.77734,-0.0156 1.43359,0.63672 1.4375,1.42187"
         id="path27543" />
      <path
         style="fill:#f06121;fill-opacity:1;fill-rule:nonzero;stroke:none"
         d="m 298,685.46484 c -1.05078,-0.0195 -1.91797,-0.14843 -2.71875,-0.57031 -0.20313,-0.10937 -0.38672,-0.26172 -0.56641,-0.41016 -0.16015,-0.13671 -0.19922,-0.33984 -0.0312,-0.46484 0.10938,-0.082 0.35938,-0.11719 0.46485,-0.0469 1.47265,1.01171 3.04297,0.92187 4.64843,0.4375 0.2461,-0.0742 0.47266,-0.2461 0.6875,-0.40235 0.19141,-0.14453 0.375,-0.23047 0.55469,-0.0234 0.19922,0.21875 0.0742,0.41016 -0.11328,0.57032 -0.58203,0.49609 -1.28516,0.70703 -2.01953,0.82422 -0.35156,0.0547 -0.71094,0.0664 -0.90625,0.0859"
         id="path27545" />
    </g>
  </g>
</svg>
