<?xml version="1.0" encoding="UTF-8" standalone="no"?>
<svg
   xmlns:dc="http://purl.org/dc/elements/1.1/"
   xmlns:cc="http://creativecommons.org/ns#"
   xmlns:rdf="http://www.w3.org/1999/02/22-rdf-syntax-ns#"
   xmlns:svg="http://www.w3.org/2000/svg"
   xmlns="http://www.w3.org/2000/svg"
   xmlns:sodipodi="http://sodipodi.sourceforge.net/DTD/sodipodi-0.dtd"
   xmlns:inkscape="http://www.inkscape.org/namespaces/inkscape"
   width="46.103909"
   height="46.203144"
   viewBox="0 0 12.198326 12.224582"
   version="1.1"
   id="svg8"
   inkscape:version="1.0.2 (e86c870879, 2021-01-15)"
   sodipodi:docname="telegram.svg">
  <defs
     id="defs2" />
  <sodipodi:namedview
     id="base"
     pagecolor="#ffffff"
     bordercolor="#666666"
     borderopacity="1.0"
     inkscape:pageopacity="0.0"
     inkscape:pageshadow="2"
     inkscape:zoom="0.35"
     inkscape:cx="85.909097"
     inkscape:cy="343.10157"
     inkscape:document-units="mm"
     inkscape:current-layer="layer1"
     inkscape:document-rotation="0"
     showgrid="false"
     units="px"
     inkscape:window-width="1366"
     inkscape:window-height="728"
     inkscape:window-x="0"
     inkscape:window-y="0"
     inkscape:window-maximized="1" />
  <metadata
     id="metadata5">
    <rdf:RDF>
      <cc:Work
         rdf:about="">
        <dc:format>image/svg+xml</dc:format>
        <dc:type
           rdf:resource="http://purl.org/dc/dcmitype/StillImage" />
        <dc:title></dc:title>
      </cc:Work>
    </rdf:RDF>
  </metadata>
  <g
     inkscape:label="Capa 1"
     inkscape:groupmode="layer"
     id="layer1"
     transform="translate(-83.103218,-57.387708)">
    <g
       id="g31701"
       transform="matrix(0.35277777,0,0,0.35277777,-59.825521,-176.12084)">
      <path
         style="fill:#f06121;fill-opacity:1;fill-rule:nonzero;stroke:none"
         d="m 423.08594,684.01562 c 0.41015,0.27735 0.79297,0.53516 1.17187,0.79688 1.29688,0.87891 2.58594,1.76172 3.88672,2.63281 0.71094,0.47656 1.54297,0.17188 1.72656,-0.6289 1.11719,-4.94141 2.23438,-9.88282 3.34766,-14.82813 0.12109,-0.52734 -0.16797,-1.03125 -0.69922,-1.12891 -0.27344,-0.0469 -0.58984,-0.0117 -0.85156,0.0859 -6.48047,2.32813 -12.96094,4.66797 -19.44141,7.00781 -0.41015,0.14844 -0.59375,0.3711 -0.58594,0.6875 0.008,0.33204 0.21875,0.54297 0.65625,0.66407 1.50782,0.41015 3.01172,0.83203 4.51954,1.23047 0.27343,0.0703 0.40625,0.20312 0.49218,0.46875 0.55469,1.66796 1.125,3.32812 1.6875,4.98828 0.17969,0.51562 0.51172,0.78125 0.97266,0.69922 0.22656,-0.043 0.46094,-0.17579 0.63672,-0.33594 0.82812,-0.75781 1.64062,-1.54297 2.48047,-2.33985 m -1.65625,-22.10156 h 2.09375 c 0.10937,0.0195 0.21875,0.043 0.32812,0.0586 0.92188,0.15234 1.85938,0.23046 2.75781,0.45703 9.01954,2.27734 14.57032,11.07422 12.78907,20.21875 -1.35938,6.95312 -6.99219,12.46093 -13.97657,13.65234 -0.6289,0.10547 -1.26562,0.17969 -1.89843,0.26563 h -2.16016 c -0.0742,-0.0195 -0.14844,-0.0508 -0.22266,-0.0547 -1.46484,-0.10547 -2.90234,-0.375 -4.27734,-0.88672 -6.28125,-2.33203 -10.09375,-6.79688 -11.4375,-13.36719 -0.12891,-0.63672 -0.18359,-1.28906 -0.27344,-1.93359 v -2.16797 c 0.0859,-0.63281 0.15625,-1.26953 0.26172,-1.90234 1.20313,-7.01563 6.69141,-12.65235 13.65235,-14 0.78125,-0.14844 1.57421,-0.22657 2.36328,-0.33985"
         id="path27551" />
      <path
         style="fill:#f06121;fill-opacity:1;fill-rule:nonzero;stroke:none"
         d="m 419.55078,685.01562 c -0.0391,-0.0977 -0.0898,-0.1914 -0.125,-0.28906 -0.4375,-1.3125 -0.875,-2.625 -1.3125,-3.9375 -0.15234,-0.46094 -0.10547,-0.57812 0.31641,-0.82031 3.48047,-2 6.96093,-3.99609 10.4375,-5.99609 0.0703,-0.0391 0.13672,-0.10938 0.20703,-0.10938 0.11719,0 0.23828,0.0391 0.35937,0.0625 -0.0391,0.10547 -0.043,0.25 -0.11328,0.30859 -0.60937,0.51954 -1.23047,1.01954 -1.85156,1.52735 -2.375,1.94531 -4.75391,3.89062 -7.12109,5.84765 -0.16407,0.13282 -0.28907,0.37891 -0.32032,0.58985 -0.125,0.82422 -0.20703,1.65234 -0.30468,2.48047 -0.0117,0.10547 -0.043,0.21093 -0.0664,0.3164 -0.0352,0.004 -0.0703,0.0117 -0.10547,0.0195"
         id="path27553" />
    </g>
  </g>
</svg>
