<?xml version="1.0" encoding="UTF-8" standalone="no"?>
<svg
   xmlns:dc="http://purl.org/dc/elements/1.1/"
   xmlns:cc="http://creativecommons.org/ns#"
   xmlns:rdf="http://www.w3.org/1999/02/22-rdf-syntax-ns#"
   xmlns:svg="http://www.w3.org/2000/svg"
   xmlns="http://www.w3.org/2000/svg"
   xmlns:sodipodi="http://sodipodi.sourceforge.net/DTD/sodipodi-0.dtd"
   xmlns:inkscape="http://www.inkscape.org/namespaces/inkscape"
   width="45.771427"
   height="45.780781"
   viewBox="0 0 12.110357 12.112832"
   version="1.1"
   id="svg8"
   inkscape:version="1.0.2 (e86c870879, 2021-01-15)"
   sodipodi:docname="twitter.svg">
  <defs
     id="defs2" />
  <sodipodi:namedview
     id="base"
     pagecolor="#ffffff"
     bordercolor="#666666"
     borderopacity="1.0"
     inkscape:pageopacity="0.0"
     inkscape:pageshadow="2"
     inkscape:zoom="0.35"
     inkscape:cx="-28.542859"
     inkscape:cy="205.74754"
     inkscape:document-units="mm"
     inkscape:current-layer="layer1"
     inkscape:document-rotation="0"
     showgrid="false"
     units="px"
     inkscape:window-width="1366"
     inkscape:window-height="728"
     inkscape:window-x="0"
     inkscape:window-y="0"
     inkscape:window-maximized="1" />
  <metadata
     id="metadata5">
    <rdf:RDF>
      <cc:Work
         rdf:about="">
        <dc:format>image/svg+xml</dc:format>
        <dc:type
           rdf:resource="http://purl.org/dc/dcmitype/StillImage" />
        <dc:title></dc:title>
      </cc:Work>
    </rdf:RDF>
  </metadata>
  <g
     inkscape:label="Capa 1"
     inkscape:groupmode="layer"
     id="layer1"
     transform="translate(-113.3853,-93.729297)">
    <g
       id="g54269"
       transform="matrix(0.35277777,0,0,0.35277777,1.2049199,-139.77938)">
      <path
         style="fill:#f06121;fill-opacity:1;fill-rule:nonzero;stroke:none"
         d="m 342.67187,673.75391 c -0.0117,-0.0312 -0.0234,-0.0625 -0.0351,-0.0937 0.74219,-0.51563 1.29297,-1.17188 1.5625,-1.98829 -0.72656,0.25782 -1.44531,0.51172 -2.16797,0.76954 -0.20313,0.0742 -0.33594,0.0117 -0.5,-0.13282 -1.19141,-1.04687 -2.55859,-1.34765 -4.04688,-0.78906 -1.48437,0.55859 -2.33984,1.67188 -2.53906,3.25 -0.0547,0.43359 -0.008,0.87891 -0.008,1.33594 -3.26172,-0.23047 -5.9375,-1.61328 -8.07422,-4.11328 -0.51172,0.92187 -0.64453,1.85547 -0.42969,2.84765 0.21485,0.98438 0.76953,1.75391 1.56641,2.36719 -0.0195,0.0312 -0.0391,0.0625 -0.0547,0.0937 -0.53906,-0.15234 -1.08203,-0.30469 -1.66015,-0.46484 0.13671,1.96484 1.15625,3.23828 3.03906,3.83984 -0.008,0.0312 -0.0156,0.0586 -0.0234,0.0859 h -1.60547 c 0.26953,0.8164 0.73047,1.4414 1.375,1.9375 0.65235,0.49609 1.40235,0.73437 2.28516,0.8164 -1.74219,1.30079 -3.61719,1.8086 -5.77735,1.63672 0.17188,0.10938 0.26172,0.17188 0.35157,0.22657 1.33203,0.76953 2.7539,1.26953 4.28515,1.4375 2.60938,0.29296 5.10157,-0.11329 7.31641,-1.5586 3.51562,-2.28906 5.21875,-5.60937 5.27734,-9.78515 0.004,-0.22266 0.0742,-0.35157 0.23438,-0.50391 0.52344,-0.5 1.01562,-1.03125 1.51562,-1.55078 0.0547,-0.0547 0.082,-0.13672 0.125,-0.21094 -0.6875,0.1875 -1.35156,0.36719 -2.01172,0.54688 m 9.64844,4.2539 v 2.14844 c -0.0195,0.0859 -0.0469,0.17187 -0.0547,0.25781 -0.20312,2.64844 -0.96484,5.12891 -2.34375,7.39453 -2.72656,4.46485 -6.66015,7.20703 -11.8125,8.17969 -0.62109,0.11719 -1.2539,0.17578 -1.88281,0.26172 h -2.14453 c -0.0977,-0.0195 -0.19141,-0.043 -0.28906,-0.0586 -0.70703,-0.0977 -1.42188,-0.15625 -2.1211,-0.30079 -8.69531,-1.80078 -14.61328,-9.99609 -13.55859,-18.79687 0.5625,-4.68359 2.71094,-8.51953 6.39453,-11.44531 3.9336,-3.125 8.44141,-4.26563 13.39453,-3.50782 3.28125,0.5 6.17188,1.90235 8.64453,4.11719 2.96094,2.65625 4.8125,5.94531 5.50782,9.86719 0.11328,0.625 0.17968,1.25781 0.26562,1.88281"
         id="path27547" />
    </g>
  </g>
</svg>
