<?xml version="1.0" encoding="UTF-8" standalone="no"?>
<svg
   xmlns:dc="http://purl.org/dc/elements/1.1/"
   xmlns:cc="http://creativecommons.org/ns#"
   xmlns:rdf="http://www.w3.org/1999/02/22-rdf-syntax-ns#"
   xmlns:svg="http://www.w3.org/2000/svg"
   xmlns="http://www.w3.org/2000/svg"
   xmlns:sodipodi="http://sodipodi.sourceforge.net/DTD/sodipodi-0.dtd"
   xmlns:inkscape="http://www.inkscape.org/namespaces/inkscape"
   width="45.814575"
   height="45.833885"
   viewBox="0 0 12.121773 12.126882"
   version="1.1"
   id="svg8"
   inkscape:version="1.0.2 (e86c870879, 2021-01-15)"
   sodipodi:docname="whatsapp.svg">
  <defs
     id="defs2" />
  <sodipodi:namedview
     id="base"
     pagecolor="#ffffff"
     bordercolor="#666666"
     borderopacity="1.0"
     inkscape:pageopacity="0.0"
     inkscape:pageshadow="2"
     inkscape:zoom="3.959798"
     inkscape:cx="49.373196"
     inkscape:cy="66.014494"
     inkscape:document-units="mm"
     inkscape:current-layer="layer1"
     inkscape:document-rotation="0"
     showgrid="false"
     units="px"
     inkscape:window-width="1366"
     inkscape:window-height="728"
     inkscape:window-x="0"
     inkscape:window-y="0"
     inkscape:window-maximized="1" />
  <metadata
     id="metadata5">
    <rdf:RDF>
      <cc:Work
         rdf:about="">
        <dc:format>image/svg+xml</dc:format>
        <dc:type
           rdf:resource="http://purl.org/dc/dcmitype/StillImage" />
        <dc:title></dc:title>
      </cc:Work>
    </rdf:RDF>
  </metadata>
  <g
     inkscape:label="Capa 1"
     inkscape:groupmode="layer"
     id="layer1"
     transform="translate(-79.42424,-79.360556)">
    <g
       id="g31834"
       transform="matrix(0.35277777,0,0,0.35277777,-91.247993,-154.14801)">
      <path
         style="fill:#f06121;fill-opacity:1;fill-rule:nonzero;stroke:none"
         d="m 490.96484,689.26953 c 0.14453,-0.0312 0.23828,-0.0469 0.33203,-0.0703 1.61329,-0.41797 3.21875,-0.84766 4.83204,-1.25391 0.17578,-0.043 0.40234,-0.0117 0.5664,0.0664 1.88672,0.92969 3.875,1.28125 5.96094,1.01562 5.72266,-0.73828 9.72266,-6.07812 8.84375,-11.79687 -0.86719,-5.64453 -6.25,-9.51563 -11.88672,-8.54688 -6.94531,1.19532 -10.66016,8.80469 -7.34766,15.01953 0.082,0.15625 0.10157,0.39063 0.0586,0.5625 -0.4375,1.64844 -0.89453,3.29688 -1.35938,5.00391 m 8.92969,-27.35547 h 2.14844 c 0.0859,0.0195 0.17187,0.0469 0.25781,0.0547 2.67578,0.19922 5.18359,0.96875 7.46484,2.375 4.4375,2.73047 7.17188,6.66016 8.12891,11.79687 0.11719,0.625 0.17578,1.25782 0.26172,1.88672 v 2.15235 c -0.0195,0.0937 -0.043,0.1914 -0.0586,0.29297 -0.10938,0.76171 -0.17969,1.53125 -0.33985,2.28515 -1.60937,7.59375 -8.33203,13.25391 -16.07422,13.51953 -4.51562,0.15625 -8.55078,-1.19531 -11.94531,-4.1914 -4.42187,-3.89453 -6.375,-8.84375 -5.86328,-14.70703 0.32422,-3.73438 1.82031,-7.01172 4.33984,-9.78907 2.65235,-2.92187 5.92578,-4.74218 9.82422,-5.41797 0.61328,-0.10546 1.23828,-0.17187 1.85547,-0.25781"
         id="path27561" />
      <path
         style="fill:#f06121;fill-opacity:1;fill-rule:nonzero;stroke:none"
         d="m 504.02734,683.76172 c 0.16016,-0.008 0.32032,0 0.47266,-0.0312 1.19922,-0.2461 2.08203,-0.92969 2.03906,-2.21094 -0.004,-0.13281 -0.0937,-0.32031 -0.20312,-0.375 -0.6836,-0.35547 -1.37891,-0.67969 -2.07813,-1.00781 -0.24219,-0.11328 -0.4375,-0.0664 -0.60547,0.16797 -0.23047,0.32031 -0.49218,0.60937 -0.73437,0.91797 -0.15625,0.19531 -0.33594,0.21875 -0.56641,0.1289 -1.50781,-0.60156 -2.65625,-1.61328 -3.49219,-3.0039 -0.12109,-0.19922 -0.12109,-0.35938 0.0312,-0.54297 0.21094,-0.26172 0.42969,-0.51953 0.59766,-0.8086 0.082,-0.14453 0.125,-0.375 0.0664,-0.52343 -0.25,-0.67969 -0.53516,-1.34766 -0.82813,-2.01172 -0.0586,-0.13282 -0.17187,-0.27344 -0.30078,-0.33985 -0.34766,-0.17968 -1.10547,-0.0391 -1.38672,0.23438 -0.79687,0.78125 -1.08203,1.72656 -0.85547,2.8164 0.19141,0.9336 0.71485,1.69922 1.27735,2.44141 1.08593,1.4375 2.34765,2.67578 4.01562,3.41797 0.8125,0.36328 1.63672,0.73047 2.55078,0.73047 m -10.59375,3.07031 c 0.2461,-0.90234 0.46094,-1.76172 0.72266,-2.61328 0.10937,-0.35938 0.0742,-0.63672 -0.125,-0.96484 -3.12891,-5.17188 -0.0859,-11.83204 5.875,-12.86719 4.91406,-0.85156 9.53125,2.73828 9.94141,7.72265 0.42968,5.23438 -3.89454,9.61719 -9.12891,9.24219 -1.35938,-0.0937 -2.625,-0.51172 -3.80469,-1.19531 -0.14453,-0.082 -0.35937,-0.10938 -0.52344,-0.0703 -0.91015,0.21484 -1.8164,0.46093 -2.72265,0.69531 -0.0625,0.0156 -0.125,0.0273 -0.23438,0.0508"
         id="path27563" />
    </g>
  </g>
</svg>
