<?xml version="1.0" encoding="UTF-8" standalone="no"?>
<svg
   xmlns:dc="http://purl.org/dc/elements/1.1/"
   xmlns:cc="http://creativecommons.org/ns#"
   xmlns:rdf="http://www.w3.org/1999/02/22-rdf-syntax-ns#"
   xmlns:svg="http://www.w3.org/2000/svg"
   xmlns="http://www.w3.org/2000/svg"
   xmlns:sodipodi="http://sodipodi.sourceforge.net/DTD/sodipodi-0.dtd"
   xmlns:inkscape="http://www.inkscape.org/namespaces/inkscape"
   width="117.32369"
   height="117.74025"
   viewBox="0 0 31.041895 31.152108"
   version="1.1"
   id="svg8"
   inkscape:version="1.0.2 (e86c870879, 2021-01-15)"
   sodipodi:docname="banco.svg">
  <defs
     id="defs2" />
  <sodipodi:namedview
     id="base"
     pagecolor="#ffffff"
     bordercolor="#666666"
     borderopacity="1.0"
     inkscape:pageopacity="0.0"
     inkscape:pageshadow="2"
     inkscape:zoom="0.35"
     inkscape:cx="207.23327"
     inkscape:cy="356.01298"
     inkscape:document-units="mm"
     inkscape:current-layer="layer1"
     inkscape:document-rotation="0"
     showgrid="false"
     units="px"
     inkscape:window-width="1366"
     inkscape:window-height="728"
     inkscape:window-x="0"
     inkscape:window-y="0"
     inkscape:window-maximized="1" />
  <metadata
     id="metadata5">
    <rdf:RDF>
      <cc:Work
         rdf:about="">
        <dc:format>image/svg+xml</dc:format>
        <dc:type
           rdf:resource="http://purl.org/dc/dcmitype/StillImage" />
        <dc:title></dc:title>
      </cc:Work>
    </rdf:RDF>
  </metadata>
  <g
     inkscape:label="Capa 1"
     inkscape:groupmode="layer"
     id="layer1"
     transform="translate(-51.002863,-53.971566)">
    <g
       id="g32178"
       transform="matrix(0.35277777,0,0,0.35277777,-81.062548,-470.48221)">
      <g
         id="g32169">
        <path
           style="fill:#23a6de;fill-opacity:1;fill-rule:nonzero;stroke:none"
           d="m 380.17578,1570.625 h 76.30859 v -2.5742 h -76.30859 z m 21.35938,-6.9883 h 9.16406 v -1.9726 c 0,-8.1914 -0.004,-16.3789 0.0117,-24.5664 0,-0.6368 -0.10157,-1.4454 0.23437,-1.8633 0.47656,-0.6055 1.33594,-1.3047 1.98438,-1.2578 0.66015,0.043 1.36718,0.8632 1.83984,1.5 0.25781,0.3437 0.0937,1.0156 0.0937,1.5429 0.004,8.1875 0.004,16.3789 0.004,24.5664 v 2.0235 h 7.33593 v -1.8125 c 0,-8.1875 0,-16.3789 0.004,-24.5664 0,-0.4688 -0.17578,-1.0625 0.0469,-1.3789 0.51171,-0.7305 1.10937,-1.6758 1.85937,-1.9024 1.17578,-0.3554 1.96094,0.5274 2.1875,1.711 0.10938,0.5664 0.0664,1.164 0.0664,1.75 0.004,8.0703 0,16.1445 0,24.2148 v 1.9961 h 10.14453 v -2.0742 c 0,-8.0703 -0.004,-16.1446 0,-24.2149 0,-0.5859 -0.17969,-1.3125 0.0976,-1.7226 0.46094,-0.6875 1.14454,-1.4844 1.87891,-1.6719 1.08594,-0.2773 1.875,0.4961 2.05078,1.6445 0.0977,0.6328 0.0781,1.2813 0.0781,1.9258 0.004,8.0117 0.004,16.0274 0,24.0391 0,0.6836 0,1.3711 0,2.1094 h 7.0664 v -2.1329 c 0,-8.0156 -0.004,-16.0273 0,-24.0429 0.004,-0.6407 -0.0117,-1.293 0.0899,-1.9219 0.1914,-1.1484 0.98828,-1.9102 2.07422,-1.6172 0.73046,0.1992 1.40234,1 1.85937,1.6953 0.27344,0.4141 0.0898,1.1367 0.0898,1.7188 0.004,8.0742 0.004,16.1445 0.008,24.2187 v 2.1524 c 2.09765,0 4.05859,-0.01 6.02343,0 2.25391,0.012 2.88282,0.6445 2.90625,2.9453 0.0195,1.7539 0.0156,3.5078 -0.004,5.2656 -0.0234,2.3633 -0.66406,3.0039 -3.04297,3.0039 -13.33594,0.01 -26.67188,0 -40.00781,0 -12.75391,0 -25.50391,0 -38.25782,0 -2.92968,0 -3.42578,-0.5117 -3.42968,-3.5 -0.004,-1.7539 -0.043,-3.5117 0.0156,-5.2656 0.0586,-1.7383 0.76953,-2.4219 2.50391,-2.4453 2.39453,-0.031 4.78906,-0.01 7.46094,-0.01 v -2.1289 c 0,-8.1289 -0.004,-16.2618 0,-24.3907 0,-0.582 -0.17579,-1.3281 0.11328,-1.7148 0.49609,-0.6641 1.26562,-1.4648 1.97265,-1.5195 0.59766,-0.047 1.42578,0.7773 1.85547,1.414 0.3125,0.461 0.16406,1.2461 0.16406,1.8867 0.0117,8.1329 0.008,16.2618 0.008,24.3946 v 1.9726 h 7.28906 v -2.0039 c 0,-8.1914 -0.004,-16.3789 0.008,-24.5664 0,-0.6367 -0.0898,-1.4453 0.2461,-1.8594 0.48437,-0.6015 1.35156,-1.289 2,-1.2382 0.65234,0.051 1.34765,0.8789 1.8125,1.5195 0.25781,0.3555 0.0898,1.0234 0.0898,1.5469 0.004,8.1914 0.004,16.3789 0.004,24.5664 v 2.0273"
           id="path20301" />
        <path
           style="fill:#23a6de;fill-opacity:1;fill-rule:nonzero;stroke:none"
           d="m 453.71094,1517.8984 c -0.35938,-0.3867 -0.46094,-0.5312 -0.59375,-0.6289 -11.27735,-8.4414 -22.57032,-16.8672 -33.82813,-25.3398 -0.91797,-0.6914 -1.43359,-0.2695 -2.10547,0.2305 -11.04297,8.2695 -22.08984,16.5312 -33.13672,24.8007 -0.29296,0.2188 -0.54296,0.5 -1.01171,0.9375 z m -35.34766,4.1836 c -13.28125,0 -26.5625,0 -39.84375,0 -0.52734,0 -1.10937,0.1446 -1.56641,-0.035 -0.85156,-0.3321 -1.94921,-0.6563 -2.36328,-1.3399 -0.60937,-1 0.0742,-1.9531 1.02344,-2.6562 4.32813,-3.1992 8.62891,-6.4297 12.9375,-9.6524 9.22656,-6.8945 18.45313,-13.7929 27.68359,-20.6875 1.91016,-1.4296 2.35157,-1.4336 4.3086,0.027 13.44531,10.043 26.88281,20.1015 40.33594,30.1328 1.01953,0.7617 1.80859,1.5586 1.32812,2.9141 -0.46484,1.3203 -1.63672,1.2968 -2.77734,1.2968 -13.6875,0 -27.37891,0 -41.06641,0"
           id="path20303" />
        <path
           style="fill:#23a6de;fill-opacity:1;fill-rule:nonzero;stroke:none"
           d="m 393.50781,1530.0508 c -1.92969,0 -3.85547,0.016 -5.78515,0 -1.71485,-0.02 -2.75391,-0.8008 -2.65235,-2.0899 0.12891,-1.625 1.2461,-2.0937 2.69922,-2.0898 3.91406,0.01 7.82813,0 11.74219,0 1.40234,0 2.42187,0.543 2.57031,2.0469 0.125,1.2851 -0.92578,2.1093 -2.61719,2.1289 -1.98437,0.023 -3.97265,0 -5.95703,0"
           id="path20305" />
        <path
           style="fill:#23a6de;fill-opacity:1;fill-rule:nonzero;stroke:none"
           d="m 418.43359,1530.0508 c -2.04297,0 -4.08593,0 -6.1289,0 -1.42578,0 -2.41407,-0.582 -2.39844,-2.1328 0.0195,-1.4727 1.03125,-2.0235 2.33984,-2.0352 4.08594,-0.027 8.17188,-0.031 12.25782,0 1.3125,0.01 2.3125,0.5899 2.3125,2.0586 0,1.5547 -1.00782,2.1055 -2.42969,2.1055 -1.98438,0 -3.96875,0 -5.95313,0"
           id="path20307" />
        <path
           style="fill:#23a6de;fill-opacity:1;fill-rule:nonzero;stroke:none"
           d="m 444.01562,1530.0508 c -1.98437,0 -3.96875,-0.012 -5.95312,0 -1.39844,0.01 -2.47266,-0.4492 -2.52344,-2.0117 -0.0547,-1.5664 0.9961,-2.1524 2.38672,-2.1602 4.02734,-0.027 8.05469,-0.023 12.08203,0 1.38281,0.01 2.45703,0.543 2.4375,2.1172 -0.0234,1.5586 -1.07031,2.0625 -2.48047,2.0547 -1.98437,-0.01 -3.96484,0 -5.94922,0"
           id="path20309" />
        <path
           style="fill:#23a6de;fill-opacity:1;fill-rule:nonzero;stroke:none"
           d="m 418.90234,1515.3203 c -5.24218,-0.027 -9.01953,-3.5 -9.32031,-7.7851 -0.33203,-4.7657 2.89063,-8.7188 7.60156,-9.3204 1.65235,-0.2148 2.82032,0.4375 2.92969,1.7383 0.13672,1.6407 -0.83203,2.2227 -2.33594,2.4063 -2.2539,0.2773 -3.76953,1.7773 -4.00781,3.7656 -0.25391,2.0781 0.76172,3.8906 2.61719,4.6875 1.76562,0.7578 3.87109,0.2891 5.08594,-1.2148 1.26562,-1.5625 1.38281,-3.2383 0.49218,-5.0704 -0.33203,-0.6835 -0.58593,-1.6132 -0.3789,-2.2812 0.17187,-0.5586 1.08593,-1.2773 1.625,-1.2422 0.73437,0.051 1.6875,0.5781 2.09375,1.1953 1.8164,2.7696 1.91406,5.7344 0.33593,8.6328 -1.61328,2.9649 -4.21875,4.4219 -6.73828,4.4883"
           id="path20311" />
      </g>
    </g>
  </g>
</svg>
