<?xml version="1.0" encoding="UTF-8" standalone="no"?>
<svg
   xmlns:dc="http://purl.org/dc/elements/1.1/"
   xmlns:cc="http://creativecommons.org/ns#"
   xmlns:rdf="http://www.w3.org/1999/02/22-rdf-syntax-ns#"
   xmlns:svg="http://www.w3.org/2000/svg"
   xmlns="http://www.w3.org/2000/svg"
   xmlns:sodipodi="http://sodipodi.sourceforge.net/DTD/sodipodi-0.dtd"
   xmlns:inkscape="http://www.inkscape.org/namespaces/inkscape"
   width="123.00935"
   height="116.79197"
   viewBox="0 0 32.546224 30.901209"
   version="1.1"
   id="svg8"
   inkscape:version="1.0.2 (e86c870879, 2021-01-15)"
   sodipodi:docname="chat.svg">
  <defs
     id="defs2" />
  <sodipodi:namedview
     id="base"
     pagecolor="#ffffff"
     bordercolor="#666666"
     borderopacity="1.0"
     inkscape:pageopacity="0.0"
     inkscape:pageshadow="2"
     inkscape:zoom="0.35"
     inkscape:cx="84.361819"
     inkscape:cy="346.96741"
     inkscape:document-units="mm"
     inkscape:current-layer="layer1"
     inkscape:document-rotation="0"
     showgrid="false"
     units="px"
     inkscape:window-width="1366"
     inkscape:window-height="728"
     inkscape:window-x="0"
     inkscape:window-y="0"
     inkscape:window-maximized="1" />
  <metadata
     id="metadata5">
    <rdf:RDF>
      <cc:Work
         rdf:about="">
        <dc:format>image/svg+xml</dc:format>
        <dc:type
           rdf:resource="http://purl.org/dc/dcmitype/StillImage" />
        <dc:title></dc:title>
      </cc:Work>
    </rdf:RDF>
  </metadata>
  <g
     inkscape:label="Capa 1"
     inkscape:groupmode="layer"
     id="layer1"
     transform="translate(-83.512602,-56.364872)">
    <g
       id="g32419"
       transform="matrix(0.35277777,0,0,0.35277777,-429.44843,-467.50867)">
      <path
         style="fill:#f06121;fill-opacity:1;fill-rule:nonzero;stroke:none"
         d="m 1467.1797,1553.8438 c 2.543,-1.9297 4.6797,-3.6602 6.9375,-5.2149 1.1758,-0.8086 1.5391,-1.707 1.5351,-3.1094 -0.055,-13.2812 -0.031,-26.5664 -0.031,-39.8476 0,-3.3867 0.2578,-3.6485 3.5508,-3.6485 12.7539,0 25.5117,0 38.2656,0 h 2.3672 v -13.1289 h -61.9453 v 56.7188 c 2.3476,0 4.582,0.039 6.8125,-0.012 1.7812,-0.043 2.5234,0.832 2.5117,2.5312 -0.02,1.7578 0,3.5117 0,5.7149 m 65.5195,13.4179 c 0,-3.2773 -0.016,-6.0469 0,-8.8164 0.012,-2.164 0.5078,-2.6758 2.6953,-2.707 2.3516,-0.039 4.7071,-0.01 7.1055,-0.01 v -49.8828 h -63.0781 v 49.8789 h 2.4492 c 11.168,0 22.3398,0.031 33.5078,-0.035 1.832,-0.01 3.2695,0.4844 4.6875,1.6367 4.0352,3.2813 8.168,6.4414 12.6289,9.9336 m -9.082,-65.2422 h 12.6523 c 2.3828,0 4.7618,0 7.1407,0 2.5039,0.01 2.8984,0.3789 2.9023,2.8711 0.012,12.0313 0,24.0625 0,36.0938 0,5.2226 0.016,10.4453 0,15.668 -0.01,2.3359 -0.4727,2.789 -2.7852,2.8085 -2.3046,0.024 -4.6093,0.01 -7.1835,0.01 0,3.5625 0.07,6.9804 -0.043,10.3906 -0.031,0.9414 -0.4102,2.4726 -0.9766,2.6562 -0.8086,0.2578 -2.1211,-0.2304 -2.9023,-0.8203 -4.7383,-3.5937 -9.3477,-7.3594 -14.0977,-10.9336 -0.9609,-0.7226 -2.3437,-1.2304 -3.5351,-1.2422 -11.8321,-0.086 -23.6641,-0.051 -35.4961,-0.051 -3.4063,0 -3.6758,-0.2735 -3.6758,-3.7579 0,-1.0429 0,-2.0859 0,-3.5976 -2.5938,1.957 -4.8789,3.6836 -7.1641,5.4062 -0.5273,0.3985 -1.0039,0.9219 -1.5976,1.1641 -0.7266,0.2969 -1.7227,0.7109 -2.2891,0.4336 -0.5781,-0.2852 -1.0508,-1.332 -1.0898,-2.0664 -0.1328,-2.5 -0.051,-5.0117 -0.051,-7.7969 -2.2422,0 -4.336,0.01 -6.4297,0 -2.5625,-0.012 -2.9258,-0.3398 -2.9258,-2.8281 -0.01,-19.5 -0.01,-39 0,-58.5 0,-2.4609 0.457,-2.9219 2.8789,-2.9258 21.2852,-0.01 42.5703,-0.01 63.8594,0 2.2656,0 2.8008,0.5469 2.8047,2.8008 0.012,4.625 0,9.2461 0,14.2109"
         id="path20321" />
      <path
         style="fill:#f06121;fill-opacity:1;fill-rule:nonzero;stroke:none"
         d="m 1511.1133,1520.1523 c -6.7344,0 -13.4688,0 -20.1992,-0.01 -0.6563,0 -1.4414,0.1055 -1.9297,-0.207 -0.5742,-0.3711 -1.1875,-1.1172 -1.2344,-1.7461 -0.035,-0.5078 0.6367,-1.25 1.1797,-1.5703 0.5156,-0.2969 1.2773,-0.2305 1.9297,-0.2305 13.4023,-0.012 26.8008,-0.01 40.2031,-0.01 0.1328,0 0.2656,0 0.3984,0 1.3946,0 2.8477,0.125 2.8047,1.961 -0.043,1.6914 -1.4258,1.8085 -2.75,1.8085 -6.8008,0 -13.6015,0 -20.4023,0"
         id="path20323" />
      <path
         style="fill:#f06121;fill-opacity:1;fill-rule:nonzero;stroke:none"
         d="m 1510.8711,1531.7578 c -6.668,0 -13.332,0 -20,0 -0.5273,0 -1.2109,0.1797 -1.5508,-0.078 -0.6523,-0.5 -1.4531,-1.2109 -1.5351,-1.9102 -0.059,-0.4804 0.9336,-1.1797 1.5703,-1.6093 0.3242,-0.2188 0.9023,-0.07 1.3633,-0.07 13.5312,0 27.0625,0 40.5937,0 0.3945,0 0.9023,-0.1367 1.1641,0.055 0.6679,0.4844 1.2265,1.1172 1.8242,1.6914 -0.6133,0.6368 -1.1602,1.375 -1.875,1.8672 -0.3633,0.25 -1.0274,0.059 -1.5547,0.059 -6.668,0 -13.332,0 -20,0"
         id="path20325" />
      <path
         style="fill:#f06121;fill-opacity:1;fill-rule:nonzero;stroke:none"
         d="m 1501.5938,1543.3555 c -3.7579,0 -7.5157,-0.012 -11.2735,0.01 -1.375,0.01 -2.6758,-0.207 -2.6172,-1.9024 0.051,-1.5156 1.2422,-1.789 2.5664,-1.7851 7.5821,0.023 15.168,0.02 22.75,0 1.3789,0 2.6407,0.2187 2.6094,1.9219 -0.035,1.5937 -1.2812,1.7617 -2.5625,1.7578 -3.8242,-0.012 -7.6484,0 -11.4726,0"
         id="path20327" />
    </g>
  </g>
</svg>
