<?xml version="1.0" encoding="UTF-8" standalone="no"?>
<svg
   xmlns:dc="http://purl.org/dc/elements/1.1/"
   xmlns:cc="http://creativecommons.org/ns#"
   xmlns:rdf="http://www.w3.org/1999/02/22-rdf-syntax-ns#"
   xmlns:svg="http://www.w3.org/2000/svg"
   xmlns="http://www.w3.org/2000/svg"
   xmlns:sodipodi="http://sodipodi.sourceforge.net/DTD/sodipodi-0.dtd"
   xmlns:inkscape="http://www.inkscape.org/namespaces/inkscape"
   width="288"
   height="370.66666"
   viewBox="0 0 76.200003 98.07222"
   version="1.1"
   id="svg8"
   inkscape:version="1.0.2 (e86c870879, 2021-01-15)"
   sodipodi:docname="external.svg">
  <defs
     id="defs2" />
  <sodipodi:namedview
     id="base"
     pagecolor="#ffffff"
     bordercolor="#666666"
     borderopacity="1.0"
     inkscape:pageopacity="0.0"
     inkscape:pageshadow="2"
     inkscape:zoom="0.98994949"
     inkscape:cx="140.90365"
     inkscape:cy="183.19435"
     inkscape:document-units="mm"
     inkscape:current-layer="layer1"
     inkscape:document-rotation="0"
     showgrid="false"
     units="px"
     inkscape:window-width="1366"
     inkscape:window-height="728"
     inkscape:window-x="0"
     inkscape:window-y="0"
     inkscape:window-maximized="1" />
  <metadata
     id="metadata5">
    <rdf:RDF>
      <cc:Work
         rdf:about="">
        <dc:format>image/svg+xml</dc:format>
        <dc:type
           rdf:resource="http://purl.org/dc/dcmitype/StillImage" />
        <dc:title></dc:title>
      </cc:Work>
    </rdf:RDF>
  </metadata>
  <g
     inkscape:label="Capa 1"
     inkscape:groupmode="layer"
     id="layer1"
     transform="translate(-68.729347,-37.717318)">
    <path
       style="fill:#f58cca;fill-opacity:1;fill-rule:nonzero;stroke:none;stroke-width:0.352778"
       d="M 142.3786,135.78954 H 71.281475 c -1.408356,0 -2.552128,-1.1424 -2.552128,-2.55214 V 40.269453 c 0,-1.409735 1.143772,-2.552135 2.552128,-2.552135 H 142.3786 c 1.40835,0 2.55075,1.1424 2.55075,2.552135 V 133.2374 c 0,1.40974 -1.1424,2.55214 -2.55075,2.55214"
       id="path20329" />
    <path
       style="fill:#5e5e5e;fill-opacity:1;fill-rule:nonzero;stroke:none;stroke-width:0.352778"
       d="m 115.02729,70.360304 c -0.81304,-4.838312 -6.61044,-8.598958 -12.33481,-8.049154 -5.76985,0.556754 -10.249852,5.793281 -10.103778,11.8098 0.143316,5.906276 5.011925,10.871341 10.949888,11.164852 5.30958,0.263207 11.02844,-3.77444 11.55347,-8.157986 h -7.60401 v 2.6803 c -2.6169,-2.090491 -5.08634,-4.0652 -7.620551,-6.089544 2.564531,-2.022969 5.028461,-3.964623 7.649491,-6.030313 v 2.672045 z m -4.69773,-15.803351 c -0.5705,0.824054 -1.12999,1.570955 -1.61781,2.361953 -0.29904,0.48507 -0.63941,0.565009 -1.16307,0.451979 -2.3151,-0.502955 -4.63847,-0.511245 -6.9522,0.01094 -0.50436,0.114371 -0.799261,-0.0095 -1.070735,-0.461645 -0.4768,-0.796501 -1.026639,-1.548906 -1.561316,-2.342656 -0.857141,0.358281 -1.681209,0.660083 -2.455665,1.055582 -0.221866,0.111619 -0.445107,0.513997 -0.420303,0.757908 0.07855,0.751028 0.242535,1.499305 0.439596,2.231037 0.146071,0.544336 -0.05512,0.811671 -0.474045,1.150655 -1.270554,1.022526 -2.52319,2.078108 -3.695901,3.210842 -0.6587,0.636658 -1.012857,1.828659 -1.743216,2.083576 -0.78824,0.27425 -1.853463,-0.274214 -2.802929,-0.420299 -0.213596,-0.03316 -0.592557,0.04547 -0.660082,0.186055 -0.4203,0.884696 -0.775836,1.799696 -1.154797,2.711979 0.841982,0.564973 1.577855,1.09414 2.349556,1.564075 0.438217,0.267335 0.580154,0.54155 0.456131,1.066589 -0.556729,2.36608 -0.598067,4.750117 -0.0565,7.123077 0.107487,0.468524 -0.0193,0.684883 -0.380337,0.920538 -0.825447,0.540173 -1.628842,1.113437 -2.443261,1.675694 0.361043,0.868151 0.720714,1.637101 0.997697,2.434978 0.179144,0.515409 0.474046,0.581555 0.934311,0.472687 0.682128,-0.164006 1.375283,-0.278377 2.053276,-0.452014 0.551215,-0.141922 0.892969,-0.01235 1.226453,0.494736 1.316027,1.996757 2.928334,3.706918 4.976096,4.989865 0.208086,0.130916 0.367937,0.556719 0.332109,0.817174 -0.130912,0.975643 -0.352778,1.940278 -0.54846,2.954514 0.868165,0.369323 1.710147,0.695925 2.520431,1.085885 0.457511,0.219111 0.728984,0.176389 0.993567,-0.281093 0.350023,-0.604978 0.80064,-1.153442 1.150662,-1.758385 0.288008,-0.500239 0.587042,-0.602192 1.193382,-0.519536 1.52687,0.205352 3.0744,0.316971 4.61505,0.322474 0.97841,0.0035 2.11804,-0.618737 2.89388,-0.285256 0.77308,0.333481 1.16995,1.521354 1.76389,2.309601 0.12678,0.168098 0.45337,0.366536 0.59393,0.311432 0.91364,-0.356905 1.8011,-0.778581 2.70785,-1.185122 -0.20258,-1.03766 -0.35829,-1.985751 -0.58154,-2.920047 -0.11024,-0.456142 0.0345,-0.676628 0.41066,-0.906745 2.00642,-1.22234 3.61597,-2.867695 4.86999,-4.839688 0.39136,-0.615985 0.79099,-0.717938 1.43316,-0.55947 0.8406,0.209444 1.7005,0.343112 2.58244,0.513997 0.4327,-1.036284 0.83371,-1.996792 1.25126,-2.997235 -0.72209,-0.483693 -1.37666,-0.974266 -2.08084,-1.379396 -0.57877,-0.333516 -0.966,-0.706967 -0.70004,-1.484172 -1.21681,0 -2.35507,0.02893 -3.49195,-0.01235 -0.55949,-0.02081 -0.77446,0.173637 -0.97979,0.708307 -1.95543,5.07806 -5.63342,8.009149 -11.07805,8.490091 -6.811637,0.602192 -13.016942,-4.835525 -13.43311,-11.492829 -0.479559,-7.663286 5.38675,-13.419349 12.17083,-13.62329 5.45979,-0.164006 10.44277,3.323802 12.27281,8.488715 0.10197,0.286632 0.36105,0.724853 0.56637,0.734484 1.29674,0.06752 2.59898,0.03457 4.0101,0.03457 -0.35416,-0.753816 0.0537,-1.045951 0.52641,-1.342214 0.73863,-0.463021 1.45245,-0.966011 2.21864,-1.478633 -0.43133,-1.023902 -0.84198,-2.003671 -1.26366,-3.006901 -1.017,0.205352 -1.93201,0.380365 -2.8429,0.577392 -0.44373,0.09648 -0.74,0.02893 -1.01285,-0.406506 -1.27744,-2.0326 -2.94349,-3.701415 -4.96921,-4.991241 -0.44373,-0.282505 -0.54984,-0.551216 -0.45062,-1.061085 0.18742,-0.948091 0.68626,-2.162175 0.29766,-2.811216 -0.41479,-0.68901 -1.70877,-0.848854 -2.72301,-1.284323 M 83.653501,67.757192 c 0.540191,-1.258147 1.102431,-2.508003 1.608169,-3.779943 0.199817,-0.498864 0.425817,-0.660083 0.975653,-0.519536 0.903993,0.228776 1.943033,0.694549 2.718869,0.43822 0.746897,-0.246662 1.18649,-1.329796 1.842438,-1.962326 1.007347,-0.970139 2.057411,-1.900308 3.144682,-2.779501 0.378961,-0.307305 0.507118,-0.566349 0.403765,-1.019739 -0.180523,-0.797878 -0.366557,-1.598507 -0.458886,-2.407426 -0.02755,-0.249414 0.176389,-0.67938 0.388606,-0.775829 1.325672,-0.599475 2.683041,-1.127231 4.106555,-1.708785 0.577399,0.866775 1.107941,1.734961 1.721168,2.541093 0.17501,0.230153 0.58291,0.392748 0.88746,0.398251 2.0643,0.03175 4.13136,-0.03581 6.19428,0.04135 0.56362,0.02081 0.83922,-0.0937 1.1107,-0.542925 0.48369,-0.797878 1.02112,-1.5627 1.60128,-2.440517 1.53238,0.622865 3.05649,1.242977 4.61918,1.87826 -0.1943,1.05283 -0.34864,2.060186 -0.57877,3.048211 -0.10336,0.442383 -0.0262,0.682131 0.35553,0.935708 1.77491,1.178207 3.25906,2.662378 4.43728,4.433146 0.28388,0.424427 0.56224,0.482318 1.01562,0.381706 0.96463,-0.213572 1.94165,-0.374826 2.98483,-0.570512 0.58842,1.423529 1.18511,2.811215 1.71566,4.223702 0.0661,0.179141 -0.15021,0.578767 -0.34727,0.724853 -0.83371,0.613233 -1.71015,1.168576 -2.57142,1.744592 0.022,0.07715 0.0427,0.152964 0.0648,0.228741 h 6.90948 c 0.0248,0.389996 0.0413,0.658706 0.0634,0.994939 H 106.48484 V 69.70576 c -1.72944,1.382183 -3.30316,2.638954 -4.932,3.942574 1.62746,1.303619 3.19154,2.554887 4.86172,3.892938 0.0317,-0.588398 0.0551,-1.034909 0.0813,-1.518603 H 128.499 v 1.019775 h -6.87641 c -0.0331,0.0744 -0.0675,0.148801 -0.1006,0.223238 0.23289,0.206692 0.45062,0.434057 0.70004,0.618737 0.76481,0.566349 1.95406,0.979769 2.19522,1.711501 0.226,0.682131 -0.54708,1.697743 -0.88884,2.563177 -0.24667,0.622865 -0.50574,1.241602 -0.78823,1.933364 -1.01286,-0.187396 -2.01607,-0.348615 -3.00551,-0.569102 -0.46164,-0.101988 -0.73036,-0.02081 -1.00872,0.396875 -1.16582,1.743217 -2.62792,3.209432 -4.36976,4.379384 -0.38998,0.261831 -0.54432,0.490572 -0.41754,0.990811 0.24115,0.959133 0.38033,1.944406 0.58153,3.023412 -1.52136,0.625651 -3.04409,1.252643 -4.61092,1.89618 -0.58429,-0.879193 -1.15617,-1.688077 -1.67018,-2.532838 -0.24942,-0.407882 -0.49472,-0.537422 -0.9853,-0.439597 -2.05741,0.407917 -4.1286,0.423087 -6.18326,0 -0.54432,-0.111619 -0.79375,0.06752 -1.05144,0.483694 -0.505738,0.817174 -1.05144,1.609548 -1.624703,2.47911 -1.453833,-0.59256 -2.886993,-1.153442 -4.29259,-1.77493 -0.155719,-0.0689 -0.253559,-0.489197 -0.21911,-0.722066 0.119892,-0.837847 0.350023,-1.659184 0.447866,-2.498407 0.03168,-0.268711 -0.135051,-0.687635 -0.351402,-0.840599 -1.761134,-1.247105 -3.252171,-2.747822 -4.506186,-4.50342 -0.147447,-0.206728 -0.566371,-0.344523 -0.839223,-0.31556 -0.78135,0.08128 -1.570965,0.202565 -2.321994,0.427179 -0.647679,0.192934 -0.86541,-0.05235 -1.081761,-0.603568 -0.489204,-1.241636 -1.04593,-2.457062 -1.576476,-3.682118 v -0.351402 c 0.853006,-0.533329 1.693609,-1.08592 2.561773,-1.591662 0.427193,-0.249414 0.505739,-0.551216 0.412034,-1.008698 -0.420303,-2.046393 -0.391364,-4.094162 -0.03583,-6.151562 0.05236,-0.303177 -0.14883,-0.790999 -0.395499,-0.978429 -0.807529,-0.610447 -1.689474,-1.123104 -2.54248,-1.672943 z m 0,0"
       id="path20659" />
  </g>
</svg>
