<?xml version="1.0" encoding="UTF-8" standalone="no"?>
<svg
   xmlns:dc="http://purl.org/dc/elements/1.1/"
   xmlns:cc="http://creativecommons.org/ns#"
   xmlns:rdf="http://www.w3.org/1999/02/22-rdf-syntax-ns#"
   xmlns:svg="http://www.w3.org/2000/svg"
   xmlns="http://www.w3.org/2000/svg"
   xmlns:sodipodi="http://sodipodi.sourceforge.net/DTD/sodipodi-0.dtd"
   xmlns:inkscape="http://www.inkscape.org/namespaces/inkscape"
   width="288"
   height="370.66666"
   viewBox="0 0 76.200003 98.07222"
   version="1.1"
   id="svg8"
   inkscape:version="1.0.2 (e86c870879, 2021-01-15)"
   sodipodi:docname="fully.svg">
  <defs
     id="defs2" />
  <sodipodi:namedview
     id="base"
     pagecolor="#ffffff"
     bordercolor="#666666"
     borderopacity="1.0"
     inkscape:pageopacity="0.0"
     inkscape:pageshadow="2"
     inkscape:zoom="1.4"
     inkscape:cx="336.73196"
     inkscape:cy="349.95516"
     inkscape:document-units="mm"
     inkscape:current-layer="layer1"
     inkscape:document-rotation="0"
     showgrid="false"
     units="px"
     inkscape:window-width="1366"
     inkscape:window-height="728"
     inkscape:window-x="0"
     inkscape:window-y="0"
     inkscape:window-maximized="1" />
  <metadata
     id="metadata5">
    <rdf:RDF>
      <cc:Work
         rdf:about="">
        <dc:format>image/svg+xml</dc:format>
        <dc:type
           rdf:resource="http://purl.org/dc/dcmitype/StillImage" />
        <dc:title></dc:title>
      </cc:Work>
    </rdf:RDF>
  </metadata>
  <g
     inkscape:label="Capa 1"
     inkscape:groupmode="layer"
     id="layer1"
     transform="translate(-76.048811,-3.880558)">
    <path
       style="fill:#ff9763;fill-opacity:1;fill-rule:nonzero;stroke:none;stroke-width:0.352778"
       d="M 149.69805,101.95278 H 78.600947 c -1.40836,0 -2.552136,-1.1424 -2.552136,-2.552137 V 6.4326935 c 0,-1.4097352 1.143776,-2.5521355 2.552136,-2.5521355 h 71.097103 c 1.40836,0 2.55076,1.1424003 2.55076,2.5521355 V 99.400643 c 0,1.409737 -1.1424,2.552137 -2.55076,2.552137"
       id="path20333" />
    <path
       style="fill:#5e5e5e;fill-opacity:1;fill-rule:nonzero;stroke:none;stroke-width:0.352778"
       d="m 103.39184,33.134937 c 0.0593,-1.299492 0.0909,-2.527335 0.17776,-3.751016 0.35278,-4.996779 4.51309,-9.125373 9.55118,-9.585642 4.13826,-0.377578 8.38539,1.765265 10.33805,5.407413 0.42584,0.79375 0.35828,1.473129 -0.18877,1.893429 -0.67663,0.519536 -1.46213,0.275625 -1.9968,-0.644913 -1.30086,-2.246207 -3.23839,-3.580165 -5.77261,-4.090035 -4.60953,-0.930169 -9.38029,2.881489 -9.4616,7.577843 -0.018,1.033533 -0.004,2.067066 -0.004,3.228728 h 1.11898 c 6.19978,0 12.3982,-0.0035 18.59661,0 2.85256,0 4.51446,1.645355 4.51721,4.470329 0.004,5.946246 0.004,11.893867 0,17.840078 0,2.844271 -1.65089,4.499292 -4.48687,4.500703 -6.87092,0.0056 -13.7432,0 -20.61546,0.0056 -0.65733,0 -1.30778,-0.108868 -1.51722,-0.786871 -0.11854,-0.385833 -0.0648,-1.032157 0.18739,-1.274692 0.33348,-0.319687 0.93571,-0.4947 1.42353,-0.497452 5.32885,-0.03316 10.65774,-0.02187 15.98662,-0.02187 1.62747,0 3.25491,0.0081 4.881,-0.0035 1.0432,-0.0071 1.56132,-0.508494 1.5627,-1.542027 0.006,-6.198411 0.006,-12.396858 -0.004,-18.596645 0,-0.993563 -0.51675,-1.513064 -1.50068,-1.514439 -7.99402,-0.0056 -15.98799,-0.0056 -23.98201,0 -1.07347,0 -1.55441,0.512621 -1.55441,1.631597 -0.006,5.973762 -0.004,11.948936 -0.004,17.922733 0,1.289862 -0.47407,1.998169 -1.314664,1.974744 -0.821302,-0.02328 -1.260898,-0.700052 -1.260898,-1.940277 0,-5.805664 0,-11.612739 0,-17.418403 0,-3.147448 1.530985,-4.708772 4.659132,-4.752869 0.19431,-0.0035 0.38862,-0.0194 0.66284,-0.03457"
       id="path20677" />
    <path
       style="fill:#5e5e5e;fill-opacity:1;fill-rule:nonzero;stroke:none;stroke-width:0.352778"
       d="m 113.73814,47.247423 c -1.32429,0 -2.40192,-1.076254 -2.40192,-2.400546 0,-1.322917 1.07763,-2.400547 2.40192,-2.400547 1.32292,0 2.40055,1.07763 2.40055,2.400547 0,1.324292 -1.07763,2.400546 -2.40055,2.400546 m 3.46717,-2.400546 c 0,-1.91135 -1.55582,-3.467136 -3.46717,-3.467136 -1.91269,0 -3.46851,1.555786 -3.46851,3.467136 0,1.730833 1.27607,3.163993 2.93384,3.423038 v 6.268719 c 0,0.294887 0.23978,0.533295 0.53467,0.533295 0.29355,0 0.53333,-0.238408 0.53333,-0.533295 v -6.268719 c 1.65915,-0.259045 2.93384,-1.692205 2.93384,-3.423038"
       id="path20679" />
  </g>
</svg>
