<?xml version="1.0" encoding="UTF-8" standalone="no"?>
<svg
   xmlns:dc="http://purl.org/dc/elements/1.1/"
   xmlns:cc="http://creativecommons.org/ns#"
   xmlns:rdf="http://www.w3.org/1999/02/22-rdf-syntax-ns#"
   xmlns:svg="http://www.w3.org/2000/svg"
   xmlns="http://www.w3.org/2000/svg"
   xmlns:sodipodi="http://sodipodi.sourceforge.net/DTD/sodipodi-0.dtd"
   xmlns:inkscape="http://www.inkscape.org/namespaces/inkscape"
   width="288"
   height="370.66666"
   viewBox="0 0 76.200003 98.07222"
   version="1.1"
   id="svg8"
   inkscape:version="1.0.2 (e86c870879, 2021-01-15)"
   sodipodi:docname="getway.svg">
  <defs
     id="defs2" />
  <sodipodi:namedview
     id="base"
     pagecolor="#ffffff"
     bordercolor="#666666"
     borderopacity="1.0"
     inkscape:pageopacity="0.0"
     inkscape:pageshadow="2"
     inkscape:zoom="0.7"
     inkscape:cx="-129.3004"
     inkscape:cy="276.74216"
     inkscape:document-units="mm"
     inkscape:current-layer="layer1"
     inkscape:document-rotation="0"
     showgrid="false"
     units="px"
     inkscape:window-width="1366"
     inkscape:window-height="728"
     inkscape:window-x="0"
     inkscape:window-y="0"
     inkscape:window-maximized="1" />
  <metadata
     id="metadata5">
    <rdf:RDF>
      <cc:Work
         rdf:about="">
        <dc:format>image/svg+xml</dc:format>
        <dc:type
           rdf:resource="http://purl.org/dc/dcmitype/StillImage" />
        <dc:title></dc:title>
      </cc:Work>
    </rdf:RDF>
  </metadata>
  <g
     inkscape:label="Capa 1"
     inkscape:groupmode="layer"
     id="layer1"
     transform="translate(-50.346427,-52.261508)">
    <path
       style="fill:#f06121;fill-opacity:1;fill-rule:nonzero;stroke:none;stroke-width:0.352778"
       d="M 123.99567,150.33373 H 52.898566 c -1.40836,0 -2.552139,-1.1424 -2.552139,-2.55214 V 54.813643 c 0,-1.409735 1.143779,-2.552135 2.552139,-2.552135 h 71.097104 c 1.40836,0 2.55076,1.1424 2.55076,2.552135 v 92.967947 c 0,1.40974 -1.1424,2.55214 -2.55076,2.55214"
       id="path20331" />
    <path
       style="fill:none;stroke:#ffffff;stroke-width:1.41111;stroke-linecap:round;stroke-linejoin:miter;stroke-miterlimit:10;stroke-opacity:1"
       d="m 67.377589,80.41208 3.781354,3.782695 7.023841,-6.753754"
       id="path20661" />
    <path
       style="fill:none;stroke:#ffffff;stroke-width:1.41111;stroke-linecap:round;stroke-linejoin:miter;stroke-miterlimit:10;stroke-opacity:1"
       d="m 82.774433,80.95363 c 0,5.519067 -4.474492,9.993559 -9.993559,9.993559 -5.520408,0 -9.9949,-4.474492 -9.9949,-9.993559 0,-5.520408 4.474492,-9.9949 9.9949,-9.9949 5.519067,0 9.993559,4.474492 9.993559,9.9949 z m 0,0"
       id="path20663" />
    <path
       style="fill:none;stroke:#ffffff;stroke-width:1.41111;stroke-linecap:round;stroke-linejoin:miter;stroke-miterlimit:10;stroke-opacity:1"
       d="m 67.377589,89.671121 v 13.249839 c 0,1.44692 1.174115,2.62103 2.621033,2.62103 h 41.488608 c 1.44695,0 2.62103,-1.17411 2.62103,-2.62103 V 76.002358 c 0,-1.446953 -1.17408,-2.621033 -2.62103,-2.621033 H 79.671082"
       id="path20665" />
    <path
       style="fill:none;stroke:#ffffff;stroke-width:1.41111;stroke-linecap:round;stroke-linejoin:miter;stroke-miterlimit:10;stroke-opacity:1"
       d="M 82.774433,80.41208 H 114.10826"
       id="path20667" />
    <path
       style="fill:none;stroke:#ffffff;stroke-width:1.41111;stroke-linecap:round;stroke-linejoin:miter;stroke-miterlimit:10;stroke-opacity:1"
       d="M 82.774433,85.815366 H 114.10826"
       id="path20669" />
    <path
       style="fill:none;stroke:#ffffff;stroke-width:1.41111;stroke-linecap:round;stroke-linejoin:miter;stroke-miterlimit:10;stroke-opacity:1"
       d="M 74.401464,94.458421 H 88.446429"
       id="path20671" />
    <path
       style="fill:none;stroke:#ffffff;stroke-width:1.41111;stroke-linecap:round;stroke-linejoin:miter;stroke-miterlimit:10;stroke-opacity:1"
       d="M 74.401464,99.590244 H 94.66001"
       id="path20673" />
    <path
       style="fill:none;stroke:#ffffff;stroke-width:1.41111;stroke-linecap:round;stroke-linejoin:miter;stroke-miterlimit:10;stroke-opacity:1"
       d="m 105.73392,93.648126 c -1.34359,0 -2.50942,0.755156 -3.1006,1.864501 -0.54293,-0.846137 -1.49102,-1.408359 -2.5714,-1.408359 -1.688112,0 -3.056502,1.367013 -3.056502,3.05509 0,1.688113 1.36839,3.056502 3.056502,3.056502 1.08038,0 2.02847,-0.562257 2.5714,-1.409735 0.59118,1.10931 1.75701,1.865875 3.1006,1.865875 1.94027,0 3.5126,-1.572364 3.5126,-3.512642 0,-1.938902 -1.57233,-3.511232 -3.5126,-3.511232 z m 0,0"
       id="path20675" />
  </g>
</svg>
