<?xml version="1.0" encoding="UTF-8" standalone="no"?>
<svg
   xmlns:dc="http://purl.org/dc/elements/1.1/"
   xmlns:cc="http://creativecommons.org/ns#"
   xmlns:rdf="http://www.w3.org/1999/02/22-rdf-syntax-ns#"
   xmlns:svg="http://www.w3.org/2000/svg"
   xmlns="http://www.w3.org/2000/svg"
   xmlns:sodipodi="http://sodipodi.sourceforge.net/DTD/sodipodi-0.dtd"
   xmlns:inkscape="http://www.inkscape.org/namespaces/inkscape"
   width="117.8281"
   height="117.82877"
   viewBox="0 0 31.175353 31.175528"
   version="1.1"
   id="svg8"
   inkscape:version="1.0.2 (e86c870879, 2021-01-15)"
   sodipodi:docname="howwork.svg">
  <defs
     id="defs2" />
  <sodipodi:namedview
     id="base"
     pagecolor="#ffffff"
     bordercolor="#666666"
     borderopacity="1.0"
     inkscape:pageopacity="0.0"
     inkscape:pageshadow="2"
     inkscape:zoom="0.35"
     inkscape:cx="153.19978"
     inkscape:cy="341.77152"
     inkscape:document-units="mm"
     inkscape:current-layer="layer1"
     inkscape:document-rotation="0"
     showgrid="false"
     units="px"
     inkscape:window-width="1366"
     inkscape:window-height="728"
     inkscape:window-x="0"
     inkscape:window-y="0"
     inkscape:window-maximized="1" />
  <metadata
     id="metadata5">
    <rdf:RDF>
      <cc:Work
         rdf:about="">
        <dc:format>image/svg+xml</dc:format>
        <dc:type
           rdf:resource="http://purl.org/dc/dcmitype/StillImage" />
        <dc:title></dc:title>
      </cc:Work>
    </rdf:RDF>
  </metadata>
  <g
     inkscape:label="Capa 1"
     inkscape:groupmode="layer"
     id="layer1"
     transform="translate(-65.299226,-57.739618)">
    <g
       id="g32354"
       transform="matrix(0.35277777,0,0,0.35277777,-321.06962,-466.13537)">
      <path
         style="fill:#ff9763;fill-opacity:1;fill-rule:nonzero;stroke:none"
         d="m 1175.7031,1547.5859 c -1.5234,-1.3476 -2.8672,-2.6054 -4.2851,-3.7695 -1.0742,-0.8867 -1.4297,-1.8203 -0.8555,-3.168 0.4688,-1.1015 0.9727,-2.2851 1.0234,-3.4531 0.1563,-3.5508 2.0625,-4.875 5.4141,-5.2109 3.1758,-0.3164 3.1133,-0.5391 3.0352,-3.7383 -0.027,-1.0078 -0.3633,-1.418 -1.3594,-1.5586 -1.4766,-0.207 -2.9219,-0.6367 -4.3945,-0.8672 -1.2618,-0.1992 -1.8633,-0.8281 -2.125,-2.0898 -0.4219,-2.0196 -0.9297,-4.0391 -1.6094,-5.9805 -0.4805,-1.3789 -0.1836,-2.2812 0.8906,-3.1602 1.457,-1.1992 2.832,-2.4882 4.2734,-3.7656 -0.8164,-1.375 -1.5351,-2.5898 -2.2656,-3.8242 -1.918,0.6445 -3.6797,1.168 -5.3906,1.8281 -1.2461,0.4805 -2.1367,0.2617 -3.0469,-0.7539 -1.418,-1.5781 -2.957,-3.0586 -4.5117,-4.5039 -0.8672,-0.8047 -1.1758,-1.5898 -0.75,-2.7461 0.6797,-1.8203 1.2422,-3.6836 1.8945,-5.6523 -1.2929,-0.75 -2.5156,-1.461 -3.832,-2.2266 -1.293,1.457 -2.5547,2.793 -3.707,4.2149 -0.9258,1.1406 -1.8985,1.5039 -3.3086,0.9023 -1.1016,-0.4727 -2.2891,-0.9766 -3.4571,-1.0195 -3.6289,-0.125 -4.789,-2.2149 -5.1367,-5.4805 -0.3203,-3.043 -0.5078,-2.9805 -3.6367,-2.9531 -1.082,0.01 -1.5352,0.3554 -1.6641,1.4414 -0.1523,1.3086 -0.5742,2.5859 -0.7382,3.8906 -0.2032,1.6094 -1,2.3789 -2.6211,2.668 -1.9141,0.3398 -3.8086,0.8672 -5.6446,1.5117 -1.3125,0.457 -2.1836,0.1641 -3.0234,-0.8438 -1.2109,-1.4492 -2.4961,-2.8398 -3.8164,-4.3359 -1.332,0.7774 -2.5547,1.4883 -3.8359,2.2344 0.6367,1.9219 1.164,3.7383 1.8476,5.4961 0.5039,1.2929 0.1524,2.1328 -0.832,3.0195 -1.5352,1.3828 -2.9922,2.8672 -4.3867,4.3906 -0.8438,0.9219 -1.6602,1.2696 -2.8829,0.7852 -1.4921,-0.5899 -3.0273,-1.0977 -4.582,-1.4961 -0.4297,-0.1094 -1.1953,0.1523 -1.4609,0.5078 -0.668,0.8984 -1.1406,1.9414 -1.7227,2.9844 1.1836,1.0469 2.25,2 3.3321,2.9453 2.3515,2.0625 2.3515,2.0586 1.4062,4.9219 -0.2187,0.6562 -0.5703,1.3164 -0.582,1.9765 -0.074,4.0821 -2.3282,5.75 -6.1719,5.793 -1.8359,0.023 -2.7344,0.8828 -2.3398,2.8086 0.058,0.2773 0.039,0.5781 0.01,0.8594 -0.1094,1.0039 0.3164,1.4414 1.3359,1.5586 1.25,0.1445 2.4727,0.5507 3.7227,0.6953 1.8086,0.2109 2.6953,1.1094 2.9804,2.9414 0.2696,1.7461 0.7578,3.4844 1.3789,5.1406 0.5586,1.4922 0.2422,2.4961 -0.957,3.457 -1.4258,1.1407 -2.7617,2.3985 -4.1641,3.6329 0.8164,1.375 1.5391,2.5898 2.2774,3.832 1.9726,-0.6563 3.7851,-1.1992 5.5508,-1.8711 1.1367,-0.4297 1.9453,-0.2031 2.7656,0.6719 1.4922,1.5898 3.0273,3.1523 4.6289,4.6328 0.9453,0.8711 1.1445,1.7226 0.6953,2.9101 -0.6719,1.7618 -1.2109,3.5743 -1.8476,5.4844 1.2968,0.75 2.5195,1.457 3.832,2.2227 1.332,-1.5 2.6211,-2.8868 3.8281,-4.3399 0.8516,-1.0156 1.7422,-1.3398 3.0274,-0.8164 1.1601,0.4766 2.3984,1.0117 3.621,1.0625 3.625,0.1367 4.793,2.211 5.1407,5.4766 0.332,3.0586 0.5234,2.9922 3.6367,2.957 1.082,-0.01 1.5195,-0.3633 1.6641,-1.4453 0.1953,-1.4727 0.6367,-2.918 0.875,-4.3906 0.1953,-1.1914 0.7968,-1.7617 1.9843,-2.0235 2.0742,-0.4492 4.1407,-0.9726 6.1485,-1.6562 1.3086,-0.4453 2.1757,-0.1641 3.0195,0.8437 1.2109,1.4532 2.5,2.836 3.8281,4.3282 1.3203,-0.7696 2.5391,-1.4805 3.8203,-2.2266 -0.6367,-1.9219 -1.164,-3.7422 -1.8476,-5.5 -0.5039,-1.293 -0.1367,-2.1328 0.8437,-3.0156 1.5352,-1.3867 2.9922,-2.8633 4.3867,-4.3907 0.8438,-0.9257 1.6602,-1.25 2.8829,-0.789 1.8086,0.6875 3.6679,1.2305 5.5781,1.8555 0.7578,-1.3047 1.4453,-2.4883 2.2148,-3.8204 M 1143.5781,1485 c 0.4649,0.7461 0.9844,1.4648 1.375,2.2461 0.2188,0.4453 0.2383,1 0.3321,1.5078 0.8828,4.6484 0.8789,4.6797 5.5742,5.5156 0.4765,0.082 1.1914,-0.2695 1.5664,-0.6445 1.1719,-1.1836 2.2539,-2.457 3.3281,-3.7344 0.8945,-1.0586 1.8359,-1.207 3.0274,-0.4843 1.8164,1.1093 3.6757,2.1445 5.5234,3.1992 1.1055,0.6289 1.5117,1.4687 1.0351,2.7343 -0.582,1.5586 -1.0234,3.1719 -1.621,4.7227 -0.3477,0.8906 0,1.3789 0.5117,2.1055 2.0664,2.9336 4.4179,3.1797 7.5898,1.6992 3.1211,-1.457 3.2383,-1.2031 4.9649,1.7734 0.7773,1.3438 1.4961,2.7266 2.3476,4.0196 0.9141,1.3867 0.6406,2.4218 -0.5937,3.4257 -1.2539,1.0118 -2.4532,2.0938 -3.6133,3.2071 -0.3242,0.3125 -0.668,0.8906 -0.5977,1.2695 0.2774,1.4648 0.6563,2.918 1.1367,4.3242 0.1211,0.3594 0.7344,0.6758 1.1758,0.7813 1.6758,0.3984 3.3672,0.7265 5.0625,1.0351 1.2891,0.2305 1.8946,0.9571 1.8867,2.2539 -0.012,2.1875 -0.01,4.375 0,6.5625 0,1.2188 -0.5742,1.9375 -1.7695,2.1758 -1.7461,0.3438 -3.5078,0.6328 -5.2305,1.082 -0.4843,0.129 -1.0351,0.6641 -1.2187,1.1407 -0.4297,1.1211 -0.7539,2.3047 -0.918,3.4883 -0.078,0.5585 0.1407,1.3476 0.5235,1.7421 1.164,1.1914 2.4531,2.2579 3.7265,3.336 1.0313,0.8672 1.3125,1.789 0.5703,3.0117 -1.1328,1.8672 -2.1875,3.7852 -3.2851,5.6719 -0.5977,1.0273 -1.4102,1.4179 -2.6094,0.9726 -1.5078,-0.5625 -3.0703,-0.9687 -4.5664,-1.5547 -0.9805,-0.3867 -1.543,-0.1211 -2.4102,0.4805 -2.9609,2.0547 -3.2382,4.4805 -1.5976,7.4414 0.2734,0.4922 0.3281,1.1016 0.5469,1.6289 0.4922,1.1797 0.082,2.0117 -0.9453,2.6133 -1.9375,1.1328 -3.8868,2.2344 -5.8204,3.375 -1.082,0.6367 -1.9531,0.4023 -2.7421,-0.5078 -1.1329,-1.3047 -2.2305,-2.6445 -3.461,-3.8516 -0.3906,-0.3867 -1.1484,-0.3984 -1.7422,-0.5742 -0.047,-0.016 -0.1054,0.051 -0.1601,0.055 -3.7071,0.1797 -5.0313,2.2969 -5.3164,5.8164 -0.2618,3.2305 -0.6524,3.3086 -3.9649,3.3086 -1.6679,0 -3.3398,-0.012 -5.0078,0 -1.293,0.012 -2.0273,-0.5898 -2.2578,-1.8789 -0.3125,-1.6953 -0.6016,-3.4024 -1.0625,-5.0586 -0.1445,-0.5195 -0.7383,-1.043 -1.2578,-1.3086 -3.1992,-1.625 -5.7305,-0.9102 -7.5235,2.2695 -0.2773,0.4883 -0.7539,0.8672 -1.1328,1.2969 -0.7461,0.8477 -1.5976,1.0586 -2.6093,0.4688 -1.9883,-1.1563 -3.9922,-2.2852 -5.9688,-3.461 -0.957,-0.5625 -1.3047,-1.3672 -0.8945,-2.4883 0.5742,-1.5625 1.0078,-3.1796 1.6172,-4.7265 0.3632,-0.9414 0.059,-1.461 -0.4922,-2.2617 -2.0235,-2.9297 -4.4492,-3.293 -7.4258,-1.6602 -0.4961,0.2695 -1.0977,0.3359 -1.625,0.5586 -1.25,0.5195 -2.0977,0.066 -2.7305,-1.0391 -1.082,-1.8945 -2.164,-3.7929 -3.2812,-5.6718 -0.6367,-1.0664 -0.4766,-1.9493 0.4414,-2.75 1.3008,-1.1368 2.6562,-2.2227 3.8476,-3.461 0.4063,-0.4258 0.4141,-1.2461 0.5664,-1.8906 0.031,-0.1445 -0.1289,-0.3281 -0.1367,-0.4922 -0.125,-3.4101 -2.164,-4.6055 -5.289,-4.7969 -1.3711,-0.086 -2.9414,-0.1328 -3.7578,-1.6601 v -8.293 c 0.8164,-1.5195 2.3789,-1.5664 3.7539,-1.6641 3.0859,-0.2148 5.1914,-1.3281 5.289,-4.7734 0,-0.168 0.1602,-0.3476 0.1289,-0.4922 -0.1445,-0.6484 -0.1406,-1.4726 -0.5468,-1.8945 -1.1875,-1.2383 -2.543,-2.3203 -3.8399,-3.457 -0.8242,-0.7305 -1.1484,-1.5547 -0.5508,-2.5899 1.1797,-2.039 2.2578,-4.1445 3.5938,-6.0742 0.3828,-0.5547 1.4961,-0.7383 2.3047,-0.8203 0.5703,-0.059 1.2539,0.2344 1.7812,0.5508 3.086,1.8359 5.4805,1.1054 7.5469,-1.7227 0.5469,-0.75 0.7656,-1.2578 0.4336,-2.1172 -0.5742,-1.5 -1,-3.0547 -1.5664,-4.5547 -0.4961,-1.3086 -0.1446,-2.2031 1.0508,-2.875 1.8515,-1.039 3.7031,-2.082 5.5156,-3.1914 1.207,-0.7383 2.1367,-0.5156 3.0117,0.5235 1.0391,1.2304 2.0469,2.4961 3.2148,3.5937 0.4727,0.4375 1.3399,0.6602 2.0157,0.6445 3.6836,-0.1015 5.2968,-2.1875 5.2773,-5.746 0,-0.3907 0.09,-0.8282 0.2735,-1.168 0.4179,-0.7695 0.9179,-1.4961 1.3828,-2.2383 z m 0,0"
         id="path20313" />
      <path
         style="fill:#ff9763;fill-opacity:1;fill-rule:nonzero;stroke:none"
         d="m 1145.0117,1518.2031 c 0,-0.6328 0.016,-1.2656 0,-1.8984 -0.09,-3.1836 -2.5117,-5.5742 -5.6172,-5.5469 -3.0507,0.024 -5.4375,2.3594 -5.5312,5.457 -0.043,1.3204 -0.047,2.6485 0,3.9688 0.1094,3.0625 2.5664,5.3984 5.6094,5.3789 3.0351,-0.02 5.4296,-2.375 5.5351,-5.4609 0.019,-0.6289 0,-1.2657 0,-1.8985 m -4.5078,26.0274 c 1.9336,-0.1953 5.0156,-0.1953 7.9414,-0.8789 3.6172,-0.8438 3.9336,-1.5977 3.9336,-5.2305 0,-0.3477 -0.035,-0.6953 0.01,-1.0352 0.1406,-1.0429 -0.3008,-1.6796 -1.1914,-2.2343 -2.1914,-1.375 -4.3242,-2.836 -6.457,-4.2969 -1.5195,-1.0391 -2.957,-2.1602 -5.0156,-1.4453 -0.5391,0.1914 -1.2461,-0.1524 -1.8672,-0.1133 -0.6446,0.039 -1.3867,0.078 -1.8985,0.4062 -2.8593,1.8243 -5.6679,3.7227 -8.4687,5.6329 -0.3945,0.2656 -0.8438,0.6836 -0.9492,1.1093 -1.0469,4.1758 0.1406,6.1953 4.2812,7.4141 0.3867,0.1133 0.7813,0.2266 1.1758,0.25 2.4648,0.1367 4.9297,0.25 8.5078,0.4219 m 5.1758,-17.2852 c 2.7266,1.8203 5.3281,3.6172 7.9883,5.3125 1.6172,1.0313 2.3906,2.3945 2.3008,4.3086 -0.062,1.2617 -0.1407,2.5469 0.019,3.793 0.2578,2.0625 -0.6367,3.3437 -2.3008,4.4023 -2.6836,1.7031 -5.5234,2.7813 -8.7422,2.7617 -3.7969,-0.02 -7.5937,0 -11.3867,-0.016 -3.6055,-0.023 -6.7148,-1.4023 -9.4727,-3.6211 -0.4687,-0.375 -1.0586,-0.9687 -1.0742,-1.4765 -0.078,-2.5196 -0.1523,-5.0664 0.1446,-7.5625 0.1054,-0.8907 1.1171,-1.8438 1.9531,-2.4454 2.6015,-1.8828 5.3203,-3.6093 8.2031,-5.539 -3.543,-3.3945 -3.3047,-7.6719 -2.8398,-11.9297 0.4804,-4.3906 4.4843,-7.7656 8.9531,-7.7656 4.4648,0 8.3906,3.3828 8.9922,7.7539 0.7187,5.207 0.1562,7.75 -2.7383,12.0234"
         id="path20315" />
      <path
         style="fill:#ff9763;fill-opacity:1;fill-rule:nonzero;stroke:none"
         d="m 1138.2305,1558.5586 c -13.6875,-0.3867 -25.9063,-11.2695 -27.7696,-24.4922 -0.2031,-1.418 -0.2773,-2.8555 -0.375,-4.2851 -0.086,-1.2266 0.25,-2.2461 1.7071,-2.254 1.4531,-0.012 1.6914,1.0118 1.7578,2.2344 0.5859,10.3242 5.414,17.9531 14.625,22.7227 3.2109,1.664 6.6914,2.3984 10.2773,2.6015 1.3086,0.074 2.7461,0.02 2.6563,1.8555 -0.09,1.8438 -1.5742,1.6328 -2.8438,1.6172 -0.1172,0 -0.2304,0 -0.035,0"
         id="path20317" />
      <path
         style="fill:#ff9763;fill-opacity:1;fill-rule:nonzero;stroke:none"
         d="m 1140.8984,1499.9102 c 13.3282,0.2773 25.6368,11.207 27.5,24.4023 0.2071,1.4766 0.2852,2.9688 0.3829,4.457 0.078,1.1797 -0.3282,2.0977 -1.6602,2.1368 -1.3242,0.039 -1.668,-0.836 -1.8164,-2.0157 -0.3086,-2.4414 -0.4961,-4.9453 -1.2031,-7.2812 -3.2032,-10.6133 -12.6133,-17.7539 -23.8125,-18.2813 -0.4571,-0.023 -1.0625,0.1055 -1.3399,-0.1328 -0.5078,-0.4336 -1.1445,-1.1015 -1.1289,-1.6601 0.012,-0.5508 0.6602,-1.2657 1.2149,-1.5664 0.4882,-0.2657 1.2304,-0.059 1.8632,-0.059"
         id="path20319" />
    </g>
  </g>
</svg>
