<?xml version="1.0" encoding="UTF-8" standalone="no"?>
<svg
   xmlns:dc="http://purl.org/dc/elements/1.1/"
   xmlns:cc="http://creativecommons.org/ns#"
   xmlns:rdf="http://www.w3.org/1999/02/22-rdf-syntax-ns#"
   xmlns:svg="http://www.w3.org/2000/svg"
   xmlns="http://www.w3.org/2000/svg"
   xmlns:sodipodi="http://sodipodi.sourceforge.net/DTD/sodipodi-0.dtd"
   xmlns:inkscape="http://www.inkscape.org/namespaces/inkscape"
   width="287.99997"
   height="370.66663"
   viewBox="0 0 76.199995 98.072211"
   version="1.1"
   id="svg8"
   inkscape:version="1.0.2 (e86c870879, 2021-01-15)"
   sodipodi:docname="integration.svg">
  <defs
     id="defs2" />
  <sodipodi:namedview
     id="base"
     pagecolor="#ffffff"
     bordercolor="#666666"
     borderopacity="1.0"
     inkscape:pageopacity="0.0"
     inkscape:pageshadow="2"
     inkscape:zoom="0.98994949"
     inkscape:cx="325.81049"
     inkscape:cy="221.45943"
     inkscape:document-units="mm"
     inkscape:current-layer="layer1"
     inkscape:document-rotation="0"
     showgrid="false"
     units="px"
     inkscape:window-width="1366"
     inkscape:window-height="728"
     inkscape:window-x="0"
     inkscape:window-y="0"
     inkscape:window-maximized="1" />
  <metadata
     id="metadata5">
    <rdf:RDF>
      <cc:Work
         rdf:about="">
        <dc:format>image/svg+xml</dc:format>
        <dc:type
           rdf:resource="http://purl.org/dc/dcmitype/StillImage" />
        <dc:title></dc:title>
      </cc:Work>
    </rdf:RDF>
  </metadata>
  <g
     inkscape:label="Capa 1"
     inkscape:groupmode="layer"
     id="layer1"
     transform="translate(-88.711385,-40.604095)">
    <path
       style="fill:#97d4eb;fill-opacity:1;fill-rule:nonzero;stroke:none;stroke-width:0.352778"
       d="M 162.36063,138.67631 H 91.263513 c -1.408356,0 -2.552128,-1.1424 -2.552128,-2.55213 V 43.15623 c 0,-1.409735 1.143772,-2.552135 2.552128,-2.552135 h 71.097117 c 1.40836,0 2.55075,1.1424 2.55075,2.552135 v 92.96795 c 0,1.40973 -1.14239,2.55213 -2.55075,2.55213"
       id="path20443" />
    <g
       style="fill:#5e5e5e;fill-opacity:1"
       id="g20497"
       transform="matrix(0.35277777,0,0,0.35277777,-159.4223,-697.407)">
      <g
         id="use20495"
         transform="matrix(0.26458333,0,0,0.26458333,755.94568,2302.9785)">
        <path
           style="stroke:none"
           d="m 1.4375,0 h 1.515625 v -6.59375 c 0,-2.578125 1.875,-4.59375 4.609375,-4.453125 v -1.5 c -2.234375,-0.09375 -3.921875,1.078125 -4.6875,3.0625 H 2.828125 v -2.90625 H 1.4375 Z m 0,0"
           id="path33190" />
      </g>
    </g>
    <path
       style="fill:#5e5e5e;fill-opacity:1;fill-rule:nonzero;stroke:none;stroke-width:0.352778"
       d="m 140.91974,59.173152 c -0.0248,-0.435468 -0.0413,-0.745525 -0.062,-1.116188 h -1.1424 v 1.116188 z m -7.52409,27.445017 h -9.8199 V 90.2231 h 9.8199 z m -9.8199,8.574158 h 9.7951 v -3.61322 h -9.7951 z M 109.89734,90.2231 h 9.78821 v -3.610434 h -9.78821 z m 27.30583,-0.01517 h 9.8323 v -3.578789 h -9.8323 z m -27.26724,1.32842 v 3.726215 c 3.14606,0 6.18877,0.0081 9.2301,-0.01799 0.20533,-0.0035 0.57877,-0.263208 0.58566,-0.417548 0.051,-1.088637 0.0276,-2.178685 0.0276,-3.290746 z m 27.29067,0.02752 v 3.69316 c 3.17775,0 6.28385,0.0095 9.38857,-0.02328 0.16674,0 0.4644,-0.339019 0.47405,-0.530542 0.0468,-1.025278 0.022,-2.054684 0.022,-3.139193 z m 2.98896,-17.444579 c 3.78272,0.03316 6.8585,-2.995859 6.88744,-6.784093 0.0275,-3.705542 -3.01102,-6.801978 -6.72345,-6.847451 -3.77582,-0.04823 -6.88881,2.972435 -6.94118,6.735832 -0.0537,3.75793 2.99861,6.862657 6.77719,6.895712 M 115.48942,61.781732 V 85.29931 c 1.10381,0 2.13734,0 3.17225,0 2.1649,0 2.34266,0.175013 2.34266,2.302721 0.001,1.485512 0.001,2.971024 0.001,4.462075 h 1.24575 c 0,-1.696368 -0.005,-3.330716 0.001,-4.965065 0.007,-1.398729 0.38585,-1.790065 1.79283,-1.795604 2.93935,-0.01376 5.87871,-0.01094 8.81806,0 1.45384,0.0056 1.82453,0.392748 1.83004,1.868629 0.006,1.624718 0.001,3.250776 0.001,4.896167 h 1.24437 c 0,-1.657773 -0.004,-3.260443 0.001,-4.863077 0.005,-1.562699 0.33348,-1.893429 1.8824,-1.90447 1.20302,-0.0081 2.40605,0 3.63389,0 v -9.957717 c -3.6835,0.2522 -6.57049,-1.039037 -8.29993,-4.291189 -1.72255,-3.241146 -1.10932,-6.343121 1.13688,-9.267296 z m 20.45147,31.671436 h -1.18512 c -0.0221,0.190183 -0.0537,0.361033 -0.0579,0.531918 -0.0482,2.443269 -0.0854,2.481863 -2.47772,2.483238 -2.65272,0 -5.30406,0 -7.95541,0 -1.73495,-0.0035 -2.00229,-0.267335 -2.01331,-1.974744 -0.001,-0.318311 0,-0.636658 0,-1.03766 -0.39963,-0.02187 -0.73725,-0.04135 -1.25126,-0.07027 0,0.628368 0.008,1.186498 -10e-4,1.741841 -0.0152,0.866775 -0.45475,1.333923 -1.33256,1.33671 -3.22461,0.0042 -6.44922,0 -9.67521,0.0035 -0.86954,0 -1.35737,-0.42859 -1.3615,-1.302244 -0.0138,-2.827761 -0.008,-5.655486 -0.004,-8.481836 0.001,-1.019739 0.62425,-1.373893 1.53513,-1.379432 1.28709,-0.0081 2.5728,0 3.9784,0 v -24.82396 h 1.34634 c 6.52226,0 13.04451,0.0441 19.56539,-0.04272 1.04593,-0.01376 2.11529,-0.542925 3.09783,-0.997691 0.19706,-0.09232 0.12127,-0.938424 0.0386,-1.413863 -0.0634,-0.359656 -0.33625,-0.683506 -0.60359,-1.187873 h 5.25033 c -0.17777,0.457518 -0.25769,0.864023 -0.47405,1.179618 -0.45337,0.660083 -0.26871,1.342214 0.50161,1.648108 3.31143,1.307782 5.26962,3.687656 5.42396,7.282956 0.15572,3.636645 -1.58612,6.201163 -4.84105,7.791414 -0.3073,0.150213 -0.66697,0.584306 -0.6711,0.892987 -0.0482,3.044084 -0.0275,6.090919 -0.0207,9.137755 0,0.135043 0.0538,0.271463 0.11025,0.529167 1.21267,0 2.42259,-0.0081 3.63113,0 1.4869,0.01235 1.82728,0.351402 1.83141,1.845204 0.008,2.541093 0.01,5.082187 -0.001,7.62194 -0.007,1.389063 -0.32108,1.696332 -1.72668,1.699119 -2.93798,0.0081 -5.87595,0.0056 -8.81393,0 -1.55581,-0.0035 -1.8259,-0.272874 -1.84106,-1.801107 -0.004,-0.385868 -0.001,-0.771701 -0.001,-1.212674"
       id="path20575" />
    <path
       style="fill:#5e5e5e;fill-opacity:1;fill-rule:nonzero;stroke:none;stroke-width:0.352778"
       d="m 135.86647,80.948925 c -0.28387,-2.554887 -1.45383,-4.336697 -3.51951,-5.702335 -0.80615,1.606797 -1.57372,3.09372 -2.29857,4.60128 -0.29903,0.622865 -0.0854,1.080382 0.64906,1.092765 1.6757,0.02752 3.35277,0.0081 5.16902,0.0081 m -7.07347,-1.93615 c 0.0799,0.0194 0.15986,0.03859 0.2384,0.05789 0.71245,-1.423529 1.42352,-2.847022 2.1966,-4.394588 -2.33716,-0.828181 -4.50205,-0.709683 -6.54568,0.520912 -2.1084,1.269188 -3.33348,3.141909 -3.59669,5.754687 1.66192,0 3.22875,0.0056 4.7942,-0.0035 1.11759,-0.0042 1.80661,-0.807543 1.66329,-1.900308 -0.12815,-0.971514 -0.24115,-1.945816 -0.36931,-2.998611 h 1.21405 c 0.13918,1.010074 0.27147,1.985751 0.40514,2.962769 m -8.97378,3.202552 c -0.12127,-3.418911 1.13826,-6.064744 3.88882,-7.861688 2.99172,-1.954071 6.17775,-2.011962 9.23699,-0.183303 2.94074,1.758385 4.30086,4.470364 4.19062,8.044991 -2.02296,0 -3.98253,0.01094 -5.9421,-0.0056 -0.55535,-0.0056 -0.95774,0.06752 -1.35875,0.584306 -0.72898,0.942552 -1.95268,0.835061 -2.81671,-0.02469 -0.28112,-0.279718 -0.74276,-0.519501 -1.12861,-0.529167 -1.9954,-0.05235 -3.99356,-0.02469 -6.07026,-0.02469"
       id="path20577" />
    <path
       style="fill:#5e5e5e;fill-opacity:1;fill-rule:nonzero;stroke:none;stroke-width:0.352778"
       d="m 127.80771,66.140513 v 1.113473 h -10.46069 c -0.0207,-0.356905 -0.04,-0.698676 -0.0648,-1.113473 z m 0,0"
       id="path20579" />
    <path
       style="fill:#5e5e5e;fill-opacity:1;fill-rule:nonzero;stroke:none;stroke-width:0.352778"
       d="m 127.79668,64.726651 h -9.18187 v -1.092765 h 9.18187 z m 0,0"
       id="path20581" />
    <path
       style="fill:#5e5e5e;fill-opacity:1;fill-rule:nonzero;stroke:none;stroke-width:0.352778"
       d="m 117.33875,71.086317 h 6.75101 v 1.138237 h -6.75101 z m 0,0"
       id="path20583" />
    <path
       style="fill:#5e5e5e;fill-opacity:1;fill-rule:nonzero;stroke:none;stroke-width:0.352778"
       d="m 122.87157,68.589285 h 4.90031 c 0.0276,0.365196 0.0537,0.701428 0.0854,1.116224 h -4.91547 c -0.0207,-0.322474 -0.0413,-0.657331 -0.0703,-1.116224"
       id="path20585" />
    <path
       style="fill:#5e5e5e;fill-opacity:1;fill-rule:nonzero;stroke:none;stroke-width:0.352778"
       d="m 117.32497,69.706885 v -1.084509 h 4.23058 c 0.0248,0.336232 0.0496,0.672465 0.0799,1.084509 z m 0,0"
       id="path20587" />
    <path
       style="fill:#5e5e5e;fill-opacity:1;fill-rule:nonzero;stroke:none;stroke-width:0.352778"
       d="m 117.35115,74.648525 v -1.051454 h 1.76113 c 0.0221,0.354154 0.0414,0.653204 0.0675,1.051454 z m 0,0"
       id="path20589" />
    <path
       style="fill:#5e5e5e;fill-opacity:1;fill-rule:nonzero;stroke:none;stroke-width:0.352778"
       d="m 140.42778,64.087241 c 0.44924,0.114371 0.77997,0.199813 1.1796,0.303177 -0.16398,0.74415 -0.31557,1.429032 -0.48369,2.191068 0.80202,0.08819 1.3491,0.359692 0.83922,1.309158 h -2.45015 c 0.30317,-1.260934 0.5898,-2.451559 0.91502,-3.803403"
       id="path20591" />
    <path
       style="fill:#5e5e5e;fill-opacity:1;fill-rule:nonzero;stroke:none;stroke-width:0.352778"
       d="m 145.8228,66.745492 v 1.150655 c -0.36243,0.02469 -0.69867,0.04823 -1.15342,0.07853 -0.0193,-0.425803 -0.0372,-0.790963 -0.0579,-1.229184 z m 0,0"
       id="path20593" />
    <path
       style="fill:#5e5e5e;fill-opacity:1;fill-rule:nonzero;stroke:none;stroke-width:0.352778"
       d="m 139.68364,71.738109 h 1.17271 v 1.10931 h -1.17271 z m 0,0"
       id="path20595" />
    <path
       style="fill:#5e5e5e;fill-opacity:1;fill-rule:nonzero;stroke:none;stroke-width:0.352778"
       d="m 144.39515,65.68162 c -0.24529,-0.420299 -0.43408,-0.742738 -0.6587,-1.125855 0.36242,-0.198437 0.66146,-0.361033 1.02388,-0.55947 0.2136,0.316935 0.40515,0.598064 0.63666,0.939835 -0.31006,0.231493 -0.58705,0.43681 -1.00184,0.74549"
       id="path20597" />
    <path
       style="fill:#5e5e5e;fill-opacity:1;fill-rule:nonzero;stroke:none;stroke-width:0.352778"
       d="m 135.82927,66.701395 c 0.29076,1.105182 -0.0634,1.43316 -1.07625,1.164413 v -1.10243 c 0.339,-0.0194 0.67524,-0.03856 1.07625,-0.06198"
       id="path20599" />
    <path
       style="fill:#5e5e5e;fill-opacity:1;fill-rule:nonzero;stroke:none;stroke-width:0.352778"
       d="m 139.68226,62.880071 v -1.056958 h 1.11208 c 0.27285,0.927418 0.007,1.329831 -1.11208,1.056958"
       id="path20601" />
    <path
       style="fill:#5e5e5e;fill-opacity:1;fill-rule:nonzero;stroke:none;stroke-width:0.352778"
       d="m 145.39561,69.513951 c -0.23013,0.416172 -0.40928,0.740022 -0.6215,1.121727 -0.34864,-0.214982 -0.63665,-0.392747 -1.00597,-0.620112 0.16675,-0.322475 0.31833,-0.613234 0.52504,-1.008733 0.36104,0.165382 0.68626,0.315595 1.10243,0.507118"
       id="path20603" />
    <path
       style="fill:#5e5e5e;fill-opacity:1;fill-rule:nonzero;stroke:none;stroke-width:0.352778"
       d="m 136.14897,68.920014 c 0.25356,0.439597 0.42581,0.740022 0.64768,1.124479 -0.38585,0.206728 -0.71245,0.380365 -1.07211,0.573264 -0.19707,-0.336232 -0.35692,-0.607695 -0.57051,-0.970139 0.29903,-0.21911 0.59531,-0.435433 0.99494,-0.727604"
       id="path20605" />
    <path
       style="fill:#5e5e5e;fill-opacity:1;fill-rule:nonzero;stroke:none;stroke-width:0.352778"
       d="m 138.65287,63.201169 c -0.43409,0.242535 -0.73312,0.409258 -1.11208,0.621489 -0.19706,-0.34036 -0.36518,-0.629744 -0.57464,-0.992188 0.32108,-0.220486 0.59256,-0.409257 0.94533,-0.651792 0.23978,0.330729 0.45613,0.629744 0.74139,1.022491"
       id="path20607" />
    <path
       style="fill:#5e5e5e;fill-opacity:1;fill-rule:nonzero;stroke:none;stroke-width:0.352778"
       d="m 137.59591,70.783139 c 0.35278,0.206693 0.65044,0.38033 0.99908,0.582895 -0.1695,0.341771 -0.32108,0.646324 -0.52503,1.054206 -0.37483,-0.201189 -0.69729,-0.373451 -1.11346,-0.596688 0.23151,-0.377578 0.42444,-0.691762 0.63941,-1.040413"
       id="path20609" />
    <path
       style="fill:#5e5e5e;fill-opacity:1;fill-rule:nonzero;stroke:none;stroke-width:0.352778"
       d="m 143.00885,70.769346 c 0.21635,0.410668 0.36242,0.68901 0.56499,1.074878 -0.32797,0.192935 -0.64216,0.377578 -1.00734,0.592561 -0.22325,-0.34865 -0.40652,-0.633906 -0.64217,-1.000478 0.3762,-0.231492 0.69315,-0.427178 1.08452,-0.666961"
       id="path20611" />
    <path
       style="fill:#5e5e5e;fill-opacity:1;fill-rule:nonzero;stroke:none;stroke-width:0.352778"
       d="m 135.7645,64.008713 c 0.37207,0.228741 0.66284,0.406505 1.00321,0.61595 -0.18052,0.344522 -0.33762,0.644948 -0.53468,1.019774 -0.37345,-0.181927 -0.70556,-0.343147 -1.10656,-0.537457 0.22737,-0.38996 0.41479,-0.712434 0.63803,-1.098267"
       id="path20613" />
    <path
       style="fill:#5e5e5e;fill-opacity:1;fill-rule:nonzero;stroke:none;stroke-width:0.352778"
       d="m 142.91789,63.822658 c -0.3762,-0.228741 -0.63941,-0.38862 -0.95773,-0.581519 0.15158,-0.341771 0.28801,-0.649076 0.47818,-1.079006 0.39963,0.221862 0.74138,0.409257 1.15066,0.635282 -0.24253,0.370664 -0.42857,0.653168 -0.67111,1.025243"
       id="path20615" />
    <path
       style="fill:#5e5e5e;fill-opacity:1;fill-rule:nonzero;stroke:none;stroke-width:0.352778"
       d="m 140.29824,93.968612 h -1.21405 c -0.0248,-0.362409 -0.0482,-0.698641 -0.0758,-1.121728 h 1.21956 c 0.0207,0.32385 0.0413,0.658707 0.0703,1.121728"
       id="path20617" />
    <path
       style="fill:#5e5e5e;fill-opacity:1;fill-rule:nonzero;stroke:none;stroke-width:0.352778"
       d="m 144.01619,92.840005 h 1.17133 v 1.090048 h -1.17133 z m 0,0"
       id="path20619" />
    <path
       style="fill:#5e5e5e;fill-opacity:1;fill-rule:nonzero;stroke:none;stroke-width:0.352778"
       d="m 142.65745,93.96586 h -1.05282 c -0.0276,-0.354154 -0.0537,-0.690386 -0.0868,-1.139613 0.39412,-0.02187 0.72347,-0.04135 1.13964,-0.06615 z m 0,0"
       id="path20621" />
    <path
       style="fill:#5e5e5e;fill-opacity:1;fill-rule:nonzero;stroke:none;stroke-width:0.352778"
       d="m 116.65249,92.808326 h 1.22232 c 0.0179,0.376202 0.0331,0.712434 0.0537,1.131358 h -1.21405 c -0.0193,-0.347274 -0.0372,-0.682131 -0.062,-1.131358"
       id="path20623" />
    <path
       style="fill:#5e5e5e;fill-opacity:1;fill-rule:nonzero;stroke:none;stroke-width:0.352778"
       d="m 111.68466,92.812453 h 1.21819 c 0.022,0.354154 0.0441,0.68901 0.073,1.14928 -0.41616,0.02081 -0.77584,0.03859 -1.20991,0.05927 -0.0276,-0.410668 -0.051,-0.746901 -0.0813,-1.208546"
       id="path20625" />
    <path
       style="fill:#5e5e5e;fill-opacity:1;fill-rule:nonzero;stroke:none;stroke-width:0.352778"
       d="m 115.35989,92.82346 v 1.135521 c -0.3514,0.02187 -0.65457,0.03997 -1.08452,0.06752 -0.0193,-0.418924 -0.0372,-0.781333 -0.0565,-1.203043 z m 0,0"
       id="path20627" />
    <path
       style="fill:#5e5e5e;fill-opacity:1;fill-rule:nonzero;stroke:none;stroke-width:0.352778"
       d="m 139.10348,87.82534 h 1.09968 v 1.178207 c -0.34589,0.02081 -0.68075,0.03859 -1.09968,0.06339 z m 0,0"
       id="path20629" />
    <path
       style="fill:#5e5e5e;fill-opacity:1;fill-rule:nonzero;stroke:none;stroke-width:0.352778"
       d="m 144.03411,89.069693 v -1.21405 c 0.36931,-0.02081 0.70831,-0.04135 1.12999,-0.06477 v 1.21405 c -0.33349,0.01799 -0.66835,0.03722 -1.12999,0.06477"
       id="path20631" />
    <path
       style="fill:#5e5e5e;fill-opacity:1;fill-rule:nonzero;stroke:none;stroke-width:0.352778"
       d="m 142.68363,87.858395 v 1.138273 c -0.35278,0.02187 -0.65595,0.04135 -1.08314,0.0689 -0.0221,-0.424427 -0.0413,-0.786871 -0.0634,-1.20717 z m 0,0"
       id="path20633" />
    <path
       style="fill:#5e5e5e;fill-opacity:1;fill-rule:nonzero;stroke:none;stroke-width:0.352778"
       d="m 117.87756,87.786746 v 1.212673 c -0.36518,0.02328 -0.70004,0.0441 -1.15755,0.07303 -0.0193,-0.420299 -0.0358,-0.779956 -0.0579,-1.209922 0.41617,-0.02611 0.75517,-0.04685 1.21543,-0.07578"
       id="path20635" />
    <path
       style="fill:#5e5e5e;fill-opacity:1;fill-rule:nonzero;stroke:none;stroke-width:0.352778"
       d="m 111.6819,87.85014 h 1.20992 v 1.153407 h -1.12585 c -0.0262,-0.35553 -0.051,-0.691762 -0.0841,-1.153407"
       id="path20637" />
    <path
       style="fill:#5e5e5e;fill-opacity:1;fill-rule:nonzero;stroke:none;stroke-width:0.352778"
       d="m 114.27124,87.851516 h 1.08589 v 1.13411 h -1.08589 z m 0,0"
       id="path20639" />
    <path
       style="fill:#5e5e5e;fill-opacity:1;fill-rule:nonzero;stroke:none;stroke-width:0.352778"
       d="m 129.04656,93.968612 h -1.15341 c -0.0193,-0.383082 -0.0345,-0.717938 -0.0538,-1.129983 h 1.20716 z m 0,0"
       id="path20641" />
    <path
       style="fill:#5e5e5e;fill-opacity:1;fill-rule:nonzero;stroke:none;stroke-width:0.352778"
       d="m 131.47191,93.967236 c -0.33073,0.01517 -0.63528,0.02893 -1.0294,0.04823 v -1.197505 h 1.0294 z m 0,0"
       id="path20643" />
    <path
       style="fill:#5e5e5e;fill-opacity:1;fill-rule:nonzero;stroke:none;stroke-width:0.352778"
       d="m 125.39338,92.820708 c 0.40239,-0.02187 0.70831,-0.03856 1.10657,-0.05923 v 1.203007 c -0.31971,0.01799 -0.62287,0.03316 -1.05282,0.05514 -0.0193,-0.417547 -0.0345,-0.77724 -0.0538,-1.198915"
       id="path20645" />
    <path
       style="fill:#5e5e5e;fill-opacity:1;fill-rule:nonzero;stroke:none;stroke-width:0.352778"
       d="m 127.92484,87.826715 h 1.09967 v 1.179583 c -0.34588,0.01799 -0.68075,0.03584 -1.09967,0.05927 z m 0,0"
       id="path20647" />
    <path
       style="fill:#5e5e5e;fill-opacity:1;fill-rule:nonzero;stroke:none;stroke-width:0.352778"
       d="m 130.41358,87.851516 h 1.09002 v 1.13411 h -1.09002 z m 0,0"
       id="path20649" />
    <path
       style="fill:#5e5e5e;fill-opacity:1;fill-rule:nonzero;stroke:none;stroke-width:0.352778"
       d="m 126.51511,89.004923 h -1.05696 c -0.0289,-0.365161 -0.0551,-0.70418 -0.0896,-1.146528 0.39825,-0.02081 0.73311,-0.03718 1.14653,-0.05923 z m 0,0"
       id="path20651" />
  </g>
</svg>
