<?xml version="1.0" encoding="UTF-8" standalone="no"?>
<svg
   xmlns:dc="http://purl.org/dc/elements/1.1/"
   xmlns:cc="http://creativecommons.org/ns#"
   xmlns:rdf="http://www.w3.org/1999/02/22-rdf-syntax-ns#"
   xmlns:svg="http://www.w3.org/2000/svg"
   xmlns="http://www.w3.org/2000/svg"
   xmlns:sodipodi="http://sodipodi.sourceforge.net/DTD/sodipodi-0.dtd"
   xmlns:inkscape="http://www.inkscape.org/namespaces/inkscape"
   width="288"
   height="370.66663"
   viewBox="0 0 76.200003 98.072211"
   version="1.1"
   id="svg8"
   inkscape:version="1.0.2 (e86c870879, 2021-01-15)"
   sodipodi:docname="oneclick.svg">
  <defs
     id="defs2" />
  <sodipodi:namedview
     id="base"
     pagecolor="#ffffff"
     bordercolor="#666666"
     borderopacity="1.0"
     inkscape:pageopacity="0.0"
     inkscape:pageshadow="2"
     inkscape:zoom="0.7"
     inkscape:cx="189.95539"
     inkscape:cy="301.87498"
     inkscape:document-units="mm"
     inkscape:current-layer="layer1"
     inkscape:document-rotation="0"
     showgrid="false"
     units="px"
     inkscape:window-width="1366"
     inkscape:window-height="728"
     inkscape:window-x="0"
     inkscape:window-y="0"
     inkscape:window-maximized="1" />
  <metadata
     id="metadata5">
    <rdf:RDF>
      <cc:Work
         rdf:about="">
        <dc:format>image/svg+xml</dc:format>
        <dc:type
           rdf:resource="http://purl.org/dc/dcmitype/StillImage" />
        <dc:title></dc:title>
      </cc:Work>
    </rdf:RDF>
  </metadata>
  <g
     inkscape:label="Capa 1"
     inkscape:groupmode="layer"
     id="layer1"
     transform="translate(-93.765059,-35.653255)">
    <path
       style="fill:#e8008a;fill-opacity:1;fill-rule:nonzero;stroke:none;stroke-width:0.352778"
       d="M 167.4143,133.72547 H 96.317195 c -1.40836,0 -2.552136,-1.1424 -2.552136,-2.55213 V 38.20539 c 0,-1.409735 1.143776,-2.552135 2.552136,-2.552135 H 167.4143 c 1.40836,0 2.55076,1.1424 2.55076,2.552135 v 92.96795 c 0,1.40973 -1.1424,2.55213 -2.55076,2.55213"
       id="path20445" />
    <path
       style="fill:#ffffff;fill-opacity:1;fill-rule:nonzero;stroke:none;stroke-width:0.352778"
       d="m 129.81454,90.799582 h 9.0606 c 0.0689,-1.185122 0.0303,-2.330274 0.21774,-3.439584 0.73035,-4.332534 0.8461,-8.699535 0.87227,-13.076202 0,-0.21911 -0.0152,-0.445099 -0.0661,-0.65733 -0.15297,-0.642162 -0.80476,-0.971515 -1.3298,-0.595313 -0.22874,0.162631 -0.31418,0.584306 -0.3762,0.905369 -0.0923,0.480942 0.18881,1.220964 -0.58706,1.240261 -0.8654,0.02187 -0.59806,-0.762071 -0.62286,-1.26231 -0.0358,-0.717938 0.006,-1.438663 -0.0123,-2.158012 -0.0152,-0.636622 -0.38587,-0.968727 -1.0046,-0.971514 -0.62149,-0.0035 -0.77308,0.428589 -0.77446,0.95638 0,0.221862 0.0717,0.478155 -0.0166,0.657331 -0.14746,0.30039 -0.3955,0.551215 -0.60081,0.822678 -0.19431,-0.281129 -0.48095,-0.538833 -0.55951,-0.850265 -0.0992,-0.389961 0.0979,-0.884696 -0.0647,-1.222305 -0.18881,-0.385868 -0.58431,-0.814422 -0.97431,-0.924666 -0.54705,-0.152964 -0.81992,0.311433 -0.85573,0.855769 -0.0123,0.192934 0.0372,0.425803 -0.0538,0.569136 -0.12954,0.205317 -0.36241,0.475403 -0.55259,0.476779 -0.19707,0 -0.50299,-0.249414 -0.56914,-0.453354 -0.10749,-0.327978 -0.0634,-0.709719 -0.0717,-1.068 -0.0841,-3.764809 -0.16676,-7.529583 -0.25079,-11.294392 -0.006,-0.249414 0.0455,-0.530542 -0.0524,-0.740022 -0.17226,-0.362408 -0.43959,-0.68072 -0.66696,-1.018363 -0.23978,0.318346 -0.56084,0.60773 -0.69455,0.966011 -0.12813,0.345899 -0.0758,0.764822 -0.0813,1.152031 -0.0219,1.493802 -0.0138,2.990356 -0.0551,4.485534 -0.11161,4.012847 -0.23011,8.024319 -0.3872,12.03579 -0.0123,0.311432 -0.3404,0.610447 -0.52367,0.916375 -0.27146,-0.21911 -0.6973,-0.387208 -0.78824,-0.665585 -0.43547,-1.332548 -0.75103,-2.7051 -1.16858,-4.044527 -0.29351,-0.939835 -0.63666,-1.872756 -1.05558,-2.761615 -0.15572,-0.330729 -0.59394,-0.526415 -0.90262,-0.78546 -0.0716,0.05235 -0.1433,0.103329 -0.21495,0.155717 0.19153,2.006423 0.0978,4.095503 0.63666,6.002725 0.98252,3.472639 2.22966,6.88467 3.58976,10.230555 0.72761,1.792817 2.16214,3.316923 1.5572,5.560378 M 127.6579,72.820333 c 0.0786,-4.466237 0.14471,-8.842869 0.24804,-13.216784 0.0152,-0.682131 0.13921,-1.376644 0.3266,-2.033975 0.19156,-0.676628 0.66975,-1.14928 1.42215,-1.218177 0.80614,-0.07444 1.44279,0.28388 1.76527,0.986684 0.24666,0.53467 0.38721,1.15891 0.40788,1.748719 0.10061,3.04546 0.14746,6.092296 0.21361,9.137756 0.007,0.271498 0.0261,0.544336 0.0413,0.85852 0.97289,-0.225989 1.80249,-0.07303 2.52318,0.577391 0.10336,0.09373 0.34727,0.09649 0.50436,0.05652 1.71842,-0.435468 2.78917,0.239783 3.11852,2.0078 0.0634,0.01094 0.14055,0.0441 0.21082,0.03316 1.61505,-0.26737 2.69406,0.545677 2.71611,2.164891 0.0648,4.517214 -0.12954,9.020634 -0.82818,13.496502 -0.16126,1.033533 -0.12954,2.095993 -0.19294,3.144661 -0.0689,1.123103 -0.48231,1.524141 -1.62055,1.528268 -2.68581,0.0081 -5.37298,0.0071 -8.06016,0 -1.35322,-0.0042 -1.78044,-0.391371 -1.73084,-1.71704 0.0469,-1.254019 -0.31418,-2.3096 -0.88469,-3.445086 -2.59482,-5.164914 -4.67293,-10.51306 -4.91409,-16.394536 -0.0205,-0.526415 -0.0358,-1.05283 -0.0275,-1.577869 0.018,-1.332547 0.54434,-1.683949 1.80799,-1.197504 0.99769,0.384492 1.61505,1.175455 1.99679,2.116667 0.37208,0.915035 0.61736,1.881011 0.95635,2.944883"
       id="path20653" />
    <path
       style="fill:#ffffff;fill-opacity:1;fill-rule:nonzero;stroke:none;stroke-width:0.352778"
       d="m 123.19858,58.137334 c 0.0166,-2.837391 1.80661,-5.324757 4.49792,-6.25355 2.62653,-0.908121 5.60309,-0.03581 7.32839,2.148381 1.78043,2.250334 1.95407,5.283377 0.4396,7.688051 -0.0882,0.140582 -0.15985,0.329353 -0.28939,0.398251 -0.25079,0.133667 -0.5388,0.197061 -0.81167,0.289383 0.0261,-0.26871 -0.04,-0.600815 0.0937,-0.79375 1.03766,-1.504808 1.39595,-3.140533 0.90812,-4.896167 -0.64494,-2.320607 -2.1966,-3.757895 -4.56681,-4.175442 -2.41159,-0.424427 -4.67293,0.66421 -5.88835,2.698185 -1.18788,1.985751 -1.0625,4.46211 0.29213,6.343121 0.22737,0.315559 0.85852,0.665586 0.31969,1.088637 -0.57051,0.447886 -0.80201,-0.256293 -1.04592,-0.581519 -0.87644,-1.163073 -1.30224,-2.490117 -1.27744,-3.953581"
       id="path20655" />
    <path
       style="fill:#ffffff;fill-opacity:1;fill-rule:nonzero;stroke:none;stroke-width:0.352778"
       d="m 133.75574,58.26825 c -0.0261,0.180517 -0.0166,0.560846 -0.15022,0.881945 -0.0937,0.227365 -0.38033,0.37345 -0.58152,0.556718 -0.10198,-0.245286 -0.27837,-0.486445 -0.29217,-0.737235 -0.0275,-0.487856 0.13505,-1.000478 0.0441,-1.469002 -0.31006,-1.594379 -1.80661,-2.612778 -3.37344,-2.368867 -1.62055,0.253577 -2.67201,1.584748 -2.54797,3.237018 0.0152,0.21911 0.11987,0.440972 0.0923,0.650452 -0.0303,0.232868 -0.16676,0.451979 -0.25633,0.676592 -0.20944,-0.163971 -0.59393,-0.321063 -0.60219,-0.4947 -0.0358,-0.810295 -0.13504,-1.675694 0.0951,-2.429475 0.55675,-1.819028 2.48323,-2.877361 4.32981,-2.54388 1.87138,0.336268 3.23286,1.959574 3.24253,4.040434"
       id="path20657" />
  </g>
</svg>
