<?xml version="1.0" encoding="UTF-8" standalone="no"?>
<svg
   xmlns:dc="http://purl.org/dc/elements/1.1/"
   xmlns:cc="http://creativecommons.org/ns#"
   xmlns:rdf="http://www.w3.org/1999/02/22-rdf-syntax-ns#"
   xmlns:svg="http://www.w3.org/2000/svg"
   xmlns="http://www.w3.org/2000/svg"
   xmlns:sodipodi="http://sodipodi.sourceforge.net/DTD/sodipodi-0.dtd"
   xmlns:inkscape="http://www.inkscape.org/namespaces/inkscape"
   width="287.99997"
   height="370.66663"
   viewBox="0 0 76.199995 98.072211"
   version="1.1"
   id="svg8"
   inkscape:version="1.0.2 (e86c870879, 2021-01-15)"
   sodipodi:docname="securepayment.svg">
  <defs
     id="defs2" />
  <sodipodi:namedview
     id="base"
     pagecolor="#ffffff"
     bordercolor="#666666"
     borderopacity="1.0"
     inkscape:pageopacity="0.0"
     inkscape:pageshadow="2"
     inkscape:zoom="0.7"
     inkscape:cx="1.5692129"
     inkscape:cy="258.0447"
     inkscape:document-units="mm"
     inkscape:current-layer="layer1"
     inkscape:document-rotation="0"
     showgrid="false"
     units="px"
     inkscape:window-width="1366"
     inkscape:window-height="728"
     inkscape:window-x="0"
     inkscape:window-y="0"
     inkscape:window-maximized="1" />
  <metadata
     id="metadata5">
    <rdf:RDF>
      <cc:Work
         rdf:about="">
        <dc:format>image/svg+xml</dc:format>
        <dc:type
           rdf:resource="http://purl.org/dc/dcmitype/StillImage" />
        <dc:title></dc:title>
      </cc:Work>
    </rdf:RDF>
  </metadata>
  <g
     inkscape:label="Capa 1"
     inkscape:groupmode="layer"
     id="layer1"
     transform="translate(-35.983335,-27.315085)">
    <path
       style="fill:#23a6de;fill-opacity:1;fill-rule:nonzero;stroke:none;stroke-width:0.352778"
       d="M 109.63258,125.3873 H 38.535463 c -1.408356,0 -2.552128,-1.1424 -2.552128,-2.55213 V 29.86722 c 0,-1.409735 1.143772,-2.552135 2.552128,-2.552135 h 71.097117 c 1.40836,0 2.55075,1.1424 2.55075,2.552135 v 92.96795 c 0,1.40973 -1.14239,2.55213 -2.55075,2.55213"
       id="path20441" />
    <path
       style="fill:#ffffff;fill-opacity:1;fill-rule:nonzero;stroke:none;stroke-width:0.352778"
       d="m 88.80354,55.173522 c 0,-1.0928 -0.02755,-2.185599 0.01238,-3.276988 0.0193,-0.567761 -0.157096,-0.880569 -0.708311,-1.081758 -4.435905,-1.628845 -8.859407,-3.287994 -13.298067,-4.909961 -0.372072,-0.136419 -0.868165,-0.202565 -1.223698,-0.0744 -4.584736,1.660525 -9.158443,3.354141 -13.721126,5.075308 -0.260452,0.09783 -0.570509,0.507118 -0.573264,0.774453 -0.0248,2.428099 -0.150209,4.869992 0.06201,7.280169 0.876431,9.917748 5.557626,17.590664 13.889246,23.046337 0.56086,0.367912 1.014236,0.396875 1.57372,0.03034 3.622862,-2.371619 6.727582,-5.269618 9.111587,-8.906263 3.577389,-5.455637 5.107012,-11.468029 4.875502,-17.9572 m 1.500681,0.636623 c 0.250804,6.802014 -1.67845,13.46207 -5.983443,19.400026 -2.397784,3.308667 -5.397775,5.972422 -8.829089,8.173155 -1.015615,0.651828 -1.956812,0.610482 -2.962783,-0.04134 -8.633407,-5.605851 -13.594344,-13.497878 -14.627874,-23.746354 -0.271473,-2.706476 -0.114377,-5.457014 -0.124022,-8.186914 -0.0041,-0.919162 0.519518,-1.550317 1.357365,-1.861749 4.682575,-1.743216 9.365149,-3.49056 14.072528,-5.166254 0.571884,-0.203941 1.351855,-0.159844 1.934764,0.0496 4.558552,1.639888 9.092296,3.351389 13.637065,5.033998 1.028019,0.38033 1.566831,1.062461 1.533758,2.197947 -0.03447,1.212673 -0.0083,2.428098 -0.0083,4.14789"
       id="path20447" />
    <path
       style="fill:#ffffff;fill-opacity:1;fill-rule:nonzero;stroke:none;stroke-width:0.352778"
       d="m 79.048406,58.647536 c -2.773991,-2.767083 -7.369747,-2.698185 -10.196103,0.06202 -2.94349,2.87595 -3.022039,7.535121 -0.173634,10.479969 2.833247,2.932465 7.451051,3.064757 10.413834,0.29905 2.751942,-2.570057 3.223232,-7.156168 0.934311,-9.646285 -1.718412,2.169054 -3.425804,4.331194 -5.144216,6.486419 -0.691776,0.865434 -1.20165,0.819961 -1.681209,-0.155716 -0.642164,-1.304996 -1.260905,-2.622409 -1.887911,-3.934284 -0.235645,-0.491948 -0.432703,-1.016988 0.221865,-1.314661 0.65319,-0.297639 0.920528,0.201189 1.154794,0.689045 0.47818,1.000443 0.960494,1.998133 1.508954,3.139158 1.67156,-2.10566 3.248035,-4.090035 4.849315,-6.104714 m 1.047309,-1.343589 c 0.456131,-0.567761 0.946714,-1.176831 1.437294,-1.785938 0.32246,-0.402378 0.782726,-0.658706 1.136883,-0.221861 0.195679,0.241158 0.172254,0.861271 -0.0041,1.160321 -0.413413,0.698641 -1.306382,1.267777 -1.389062,1.962326 -0.07855,0.66421 0.655944,1.405573 0.974273,2.140091 2.069811,4.756997 -0.394119,10.255356 -5.348167,11.959978 -4.854829,1.671567 -10.139606,-1.161662 -11.509375,-6.168108 -1.35461,-4.956774 1.845194,-10.107894 6.89157,-11.083536 2.582443,-0.500239 4.93062,0.05648 7.052797,1.595755 0.195682,0.141958 0.38723,0.289383 0.584288,0.429965 0.0193,0.01376 0.0565,0.0042 0.173634,0.01094"
       id="path20449" />
  </g>
</svg>
