<?xml version="1.0" encoding="UTF-8" standalone="no"?>
<svg
   xmlns:dc="http://purl.org/dc/elements/1.1/"
   xmlns:cc="http://creativecommons.org/ns#"
   xmlns:rdf="http://www.w3.org/1999/02/22-rdf-syntax-ns#"
   xmlns:svg="http://www.w3.org/2000/svg"
   xmlns="http://www.w3.org/2000/svg"
   xmlns:sodipodi="http://sodipodi.sourceforge.net/DTD/sodipodi-0.dtd"
   xmlns:inkscape="http://www.inkscape.org/namespaces/inkscape"
   width="121.46632"
   height="121.06269"
   viewBox="0 0 32.137964 32.03117"
   version="1.1"
   id="svg8"
   inkscape:version="1.0.2 (e86c870879, 2021-01-15)"
   sodipodi:docname="solucion.svg">
  <defs
     id="defs2" />
  <sodipodi:namedview
     id="base"
     pagecolor="#ffffff"
     bordercolor="#666666"
     borderopacity="1.0"
     inkscape:pageopacity="0.0"
     inkscape:pageshadow="2"
     inkscape:zoom="0.35"
     inkscape:cx="140.73316"
     inkscape:cy="371.95993"
     inkscape:document-units="mm"
     inkscape:current-layer="layer1"
     inkscape:document-rotation="0"
     showgrid="false"
     units="px"
     inkscape:window-width="1366"
     inkscape:window-height="728"
     inkscape:window-x="0"
     inkscape:window-y="0"
     inkscape:window-maximized="1" />
  <metadata
     id="metadata5">
    <rdf:RDF>
      <cc:Work
         rdf:about="">
        <dc:format>image/svg+xml</dc:format>
        <dc:type
           rdf:resource="http://purl.org/dc/dcmitype/StillImage" />
        <dc:title></dc:title>
      </cc:Work>
    </rdf:RDF>
  </metadata>
  <g
     inkscape:label="Capa 1"
     inkscape:groupmode="layer"
     id="layer1"
     transform="translate(-68.597685,-49.752269)">
    <g
       id="g32297"
       transform="matrix(0.35277777,0,0,0.35277777,-190.18888,-474.26189)">
      <path
         style="fill:#97d4eb;fill-opacity:1;fill-rule:nonzero;stroke:none"
         d="m 791.96875,1503.7344 c 0.64062,2.6914 0.37109,5.2773 2.71875,6.8945 0.4375,0.3008 0.62891,0.9883 0.88281,1.5234 1.77735,3.6758 3.54297,7.3555 5.3086,11.0391 0.11328,0.2383 0.34765,0.5078 0.30468,0.7149 -0.15234,0.6914 -0.40234,1.3593 -0.61718,2.039 -0.64844,-0.2969 -1.41797,-0.4648 -1.91407,-0.9258 -0.44922,-0.414 -0.60156,-1.1523 -0.88672,-1.7422 -1.6914,-3.5 -3.35937,-7.0117 -5.07812,-10.496 -0.82031,-1.6602 -2.28125,-2.2032 -3.98438,-1.7227 -1.625,0.4609 -2.23046,1.7656 -2.10156,3.3906 0.0625,0.7813 0.19141,1.5703 0.40235,2.3281 0.9375,3.3594 2.01171,6.6836 2.85546,10.0704 1.60157,6.414 4.08594,12.3476 8.67579,17.2617 0.72265,0.7734 1.2539,1.1328 2.32812,0.7578 3.60938,-1.25 7.23828,-2.4414 10.88281,-3.5742 1.03125,-0.3203 1.29688,-0.8125 1.19922,-1.8516 -0.24609,-2.5586 -0.3164,-5.1328 -0.54297,-7.6953 -0.60547,-6.8945 -1.19922,-13.793 -1.96093,-20.668 -0.10157,-0.9297 -0.9336,-2.1211 -1.76563,-2.5625 -5.11328,-2.7265 -10.77734,-3.625 -16.70703,-4.7812 m -1.11719,44.414 c 1.97266,-0.6679 3.75781,-1.2734 5.67188,-1.9218 -0.40625,-0.5821 -0.65235,-1.0469 -1,-1.4141 -4.25782,-4.4961 -6.4336,-10.0273 -8.01172,-15.8828 -0.99219,-3.6875 -2.16406,-7.332 -3.16016,-11.0195 -0.28906,-1.0821 -0.69531,-1.6602 -1.8789,-1.9063 -1.85157,-0.3906 -1.88672,-0.9297 -0.32422,-2.3906 1.16406,-1.086 1.64843,-2.4063 1.19531,-3.9375 -0.44922,-1.5078 -1.46875,-2.4805 -3.08203,-2.707 -1.58594,-0.2227 -3.10938,0.2421 -3.6875,1.6835 -0.46485,1.1485 -0.44141,2.6719 -0.14453,3.9102 0.32031,1.3438 0.23437,2.0117 -1.22657,1.707 -2.89062,-0.5976 -5.7539,-1.332 -8.78906,-2.0468 0.71485,-3.086 1.42188,-6.0157 2.04297,-8.9649 0.12109,-0.5742 -0.0977,-1.2148 -0.16406,-1.8242 -0.54688,0.07 -1.12891,0.039 -1.63281,0.2266 -2.32422,0.8632 -4.39454,0.1992 -5.41016,-1.7891 -0.89844,-1.7734 -0.33203,-3.957 1.32031,-5.0898 1.76953,-1.211 3.85156,-0.8438 5.48828,0.914 0.3711,0.3985 0.89453,0.6563 1.35157,0.9766 0.33593,-0.5156 0.83984,-0.9922 0.98828,-1.5586 0.80468,-3.1211 1.52343,-6.2656 2.34765,-9.7188 1.34375,0.4336 2.59375,0.75 3.77344,1.2344 5.89453,2.4297 10.42188,6.4492 13.30859,12.1328 0.8086,1.5899 1.86719,2.0039 3.44532,2.3633 4.80468,1.1016 9.59375,2.3281 14.32031,3.7305 3.94531,1.1758 5.88281,3.8554 6.10937,8.1758 0.42969,8.2343 1.27344,16.4453 1.94922,24.6679 0.0547,0.6446 0.15235,1.2891 0.25782,2.1758 1.875,-0.5977 3.60156,-1.1445 5.60156,-1.7812 1.04687,4.0742 2.07031,8.0585 3.15625,12.3007 -10.41797,2.6485 -20.71875,5.2657 -31.23047,7.9375 -0.88281,-3.4843 -1.71875,-6.7695 -2.58594,-10.1836"
         id="path20297" />
      <path
         style="fill:#97d4eb;fill-opacity:1;fill-rule:nonzero;stroke:none"
         d="m 767.93359,1559.4453 c 0,-0.8359 0.0547,-1.4297 -0.008,-2.0117 -0.56641,-5.1211 1.49609,-9.0703 5.25391,-12.3945 1.71875,-1.5235 3.41015,-3.1641 4.74218,-5.0235 1.29297,-1.8086 2.10938,-3.957 3.34766,-6.375 -3.00781,0 -5.30859,0.031 -7.60547,-0.012 -2.07422,-0.035 -2.55469,-0.8398 -1.48828,-2.5508 0.73828,-1.1875 0.89063,-2.4101 -0.27734,-3.1289 -0.70703,-0.4336 -2.08985,-0.457 -2.8086,-0.043 -1.18359,0.6875 -1.0664,1.9296 -0.36328,3.125 1.03516,1.7578 0.58203,2.5585 -1.43359,2.5976 -2.22656,0.047 -4.45313,0.012 -6.73438,0.012 v 7.8008 c 3.85938,0.2227 6.04688,2.0234 6.19532,4.9766 0.15234,3.0429 -1.98829,4.957 -6.23829,5.5 v 7.5273 z m -10.41797,0.1094 c 0,-3.2539 -0.0195,-6.2734 0.008,-9.293 0.0195,-2.5664 0.5625,-2.7851 2.92968,-1.8008 0.76954,0.3204 2.25,0.1211 2.73829,-0.4296 0.49218,-0.5508 0.53906,-2.1446 0.0781,-2.7227 -0.45703,-0.5742 -1.94922,-0.8594 -2.71094,-0.5586 -2.60547,1.0234 -3.02734,0.8477 -3.03906,-2.0312 -0.0117,-2.9493 -0.004,-5.8985 -0.004,-8.9219 h -5.22656 c -0.32812,4.0351 -1.95312,6.0429 -4.91015,6.2031 -3.19532,0.1758 -4.90235,-1.6953 -5.63282,-6.1992 h -4.60937 c 0.21094,3.1133 1.72656,6.082 5.30078,9.3008 4.55469,4.1015 8.05078,8.5547 7.15625,15.1914 -0.0508,0.3672 0.64453,1.1875 1.01953,1.207 2.21875,0.1133 4.44922,0.055 6.90234,0.055 m -20.89453,-28.7344 c 2.32813,0 4.5625,-0.016 6.79297,0 2.53125,0.019 2.92188,0.6641 1.75781,2.9024 -0.59375,1.1484 -0.55859,2.3476 0.57032,2.9375 0.71875,0.3711 1.96484,0.3554 2.67578,-0.031 1.10937,-0.6055 1.16406,-1.7734 0.52734,-2.9336 -1.19922,-2.1758 -0.76562,-2.8594 1.78906,-2.875 2.21485,-0.012 4.4336,0 6.67969,0 v -5.9531 c -4.19531,-0.5703 -6.11719,-2.1406 -6.27344,-5.0625 -0.16015,-2.9375 1.5,-4.4219 6.1875,-5.5742 v -5.6133 c -11.32812,0.043 -22.01953,11.4336 -20.70703,22.2031 m 23.77344,-0.086 h 4.76953 c 0.57422,-4.3008 2.38672,-6.3711 5.44531,-6.2774 3.02735,0.09 4.76563,2.2071 5.05469,6.3594 1.875,0 3.76953,-0.01 5.66406,0 2.4375,0.012 2.85157,0.5703 2.40625,3.0156 -0.73828,4.0313 -2.66015,7.418 -5.51953,10.2969 -1.48828,1.5 -3.03125,2.9414 -4.52734,4.4336 -2.01172,2.0039 -3.02344,4.375 -2.94141,7.2813 0.1211,4.289 0.0859,8.5781 0.0899,12.8671 0,2.8204 -0.97657,3.9219 -3.78125,3.8399 -2.11719,-0.062 -3.74219,0.1367 -4.10157,2.6875 -0.0508,0.3672 -0.91796,0.8437 -1.4375,0.8789 -1.64062,0.1133 -3.30078,-0.023 -4.94531,0.066 -1.17578,0.066 -1.90234,-0.2734 -2.08594,-1.4961 -0.26171,-1.7969 -1.34375,-2.3828 -3.0625,-2.1055 -0.51171,0.082 -1.05468,0.031 -1.58203,-0.012 -2.1875,-0.1797 -3.19531,-1.2148 -3.20312,-3.4453 -0.0156,-4.2891 -0.0742,-8.582 0.0898,-12.8672 0.13281,-3.3594 -1.07422,-6.0273 -3.44531,-8.2851 -1.05078,-1 -2.0625,-2.043 -3.12109,-3.0352 -9.21094,-8.6211 -8.21485,-22.3594 -0.44532,-30.8203 4.81641,-5.2461 10.82422,-8.0625 17.9336,-8.5156 2.20703,-0.1407 2.72656,0.332 2.74218,2.5234 0.0195,2.6406 0.0273,5.2774 -0.004,7.918 -0.0273,2.375 -0.80078,2.832 -2.83594,1.6758 -1.15234,-0.6563 -2.32031,-0.6446 -2.94922,0.457 -0.40625,0.707 -0.50781,2.2383 -0.0703,2.6172 0.66797,0.5781 2.07812,0.8906 2.89844,0.582 2.36718,-0.8906 2.9375,-0.668 2.96093,1.8594 0.0234,2.4336 0.004,4.8672 0.004,7.4961"
         id="path20299" />
    </g>
  </g>
</svg>
